<mxfile host="app.diagrams.net" agent="Mozilla/5.0 (X11; Ubuntu; Linux x86_64; rv:132.0) Gecko/20100101 Firefox/132.0" version="24.9.0">
  <diagram name="PÃ¡gina-1" id="_TZk-VBSfBG-fOWsmnnx">
    <mxGraphModel grid="1" page="1" gridSize="10" guides="1" tooltips="1" connect="1" arrows="1" fold="1" pageScale="1" pageWidth="827" pageHeight="1169" math="0" shadow="0">
      <root>
        <mxCell id="0" />
        <mxCell id="1" parent="0" />
        <mxCell id="JfAFxv9XHzVIEhKvCDaF-9" style="edgeStyle=orthogonalEdgeStyle;rounded=0;orthogonalLoop=1;jettySize=auto;html=1;entryX=0;entryY=0.5;entryDx=0;entryDy=0;fillColor=#f8cecc;strokeColor=#b85450;" edge="1" parent="1" source="JfAFxv9XHzVIEhKvCDaF-1" target="JfAFxv9XHzVIEhKvCDaF-2">
          <mxGeometry relative="1" as="geometry" />
        </mxCell>
        <mxCell id="1YkeTyR81IGIItmo_7Jy-1" value="1" style="edgeLabel;html=1;align=center;verticalAlign=middle;resizable=0;points=[];" connectable="0" vertex="1" parent="JfAFxv9XHzVIEhKvCDaF-9">
          <mxGeometry x="0.248" y="1" relative="1" as="geometry">
            <mxPoint x="-1" y="-9" as="offset" />
          </mxGeometry>
        </mxCell>
        <mxCell id="JfAFxv9XHzVIEhKvCDaF-1" value="1.1" style="ellipse;whiteSpace=wrap;html=1;aspect=fixed;" vertex="1" parent="1">
          <mxGeometry x="10" y="10" width="40" height="40" as="geometry" />
        </mxCell>
        <mxCell id="JfAFxv9XHzVIEhKvCDaF-13" style="edgeStyle=orthogonalEdgeStyle;rounded=0;orthogonalLoop=1;jettySize=auto;html=1;entryX=0;entryY=0.5;entryDx=0;entryDy=0;fillColor=#f8cecc;strokeColor=#b85450;" edge="1" parent="1" source="JfAFxv9XHzVIEhKvCDaF-2" target="JfAFxv9XHzVIEhKvCDaF-3">
          <mxGeometry relative="1" as="geometry" />
        </mxCell>
        <mxCell id="1YkeTyR81IGIItmo_7Jy-2" value="3" style="edgeLabel;html=1;align=center;verticalAlign=middle;resizable=0;points=[];" connectable="0" vertex="1" parent="JfAFxv9XHzVIEhKvCDaF-13">
          <mxGeometry x="-0.2564" relative="1" as="geometry">
            <mxPoint x="-2" y="-10" as="offset" />
          </mxGeometry>
        </mxCell>
        <mxCell id="JfAFxv9XHzVIEhKvCDaF-2" value="1.2" style="ellipse;whiteSpace=wrap;html=1;aspect=fixed;" vertex="1" parent="1">
          <mxGeometry x="80" y="10" width="40" height="40" as="geometry" />
        </mxCell>
        <mxCell id="JfAFxv9XHzVIEhKvCDaF-11" style="edgeStyle=orthogonalEdgeStyle;rounded=0;orthogonalLoop=1;jettySize=auto;html=1;entryX=0;entryY=0.5;entryDx=0;entryDy=0;fillColor=#f8cecc;strokeColor=#b85450;" edge="1" parent="1" source="JfAFxv9XHzVIEhKvCDaF-3" target="JfAFxv9XHzVIEhKvCDaF-4">
          <mxGeometry relative="1" as="geometry" />
        </mxCell>
        <mxCell id="1YkeTyR81IGIItmo_7Jy-3" value="3" style="edgeLabel;html=1;align=center;verticalAlign=middle;resizable=0;points=[];" connectable="0" vertex="1" parent="JfAFxv9XHzVIEhKvCDaF-11">
          <mxGeometry x="-0.2606" y="-1" relative="1" as="geometry">
            <mxPoint y="-10" as="offset" />
          </mxGeometry>
        </mxCell>
        <mxCell id="JfAFxv9XHzVIEhKvCDaF-3" value="1.2.1" style="ellipse;whiteSpace=wrap;html=1;aspect=fixed;" vertex="1" parent="1">
          <mxGeometry x="150" y="7.5" width="42.5" height="42.5" as="geometry" />
        </mxCell>
        <mxCell id="1YkeTyR81IGIItmo_7Jy-7" style="edgeStyle=orthogonalEdgeStyle;rounded=0;orthogonalLoop=1;jettySize=auto;html=1;entryX=0;entryY=0.5;entryDx=0;entryDy=0;fillColor=#f8cecc;strokeColor=#b85450;" edge="1" parent="1" source="JfAFxv9XHzVIEhKvCDaF-4" target="1YkeTyR81IGIItmo_7Jy-6">
          <mxGeometry relative="1" as="geometry" />
        </mxCell>
        <mxCell id="1YkeTyR81IGIItmo_7Jy-54" value="3" style="edgeLabel;html=1;align=center;verticalAlign=middle;resizable=0;points=[];" connectable="0" vertex="1" parent="1YkeTyR81IGIItmo_7Jy-7">
          <mxGeometry x="0.0419" y="6" relative="1" as="geometry">
            <mxPoint x="-2" y="-2" as="offset" />
          </mxGeometry>
        </mxCell>
        <mxCell id="JfAFxv9XHzVIEhKvCDaF-4" value="1.2.2" style="ellipse;whiteSpace=wrap;html=1;aspect=fixed;" vertex="1" parent="1">
          <mxGeometry x="220" y="6.88" width="43.12" height="43.12" as="geometry" />
        </mxCell>
        <mxCell id="lcrHF27Oe8sUzLJfKoiB-8" style="edgeStyle=orthogonalEdgeStyle;rounded=0;orthogonalLoop=1;jettySize=auto;html=1;" edge="1" parent="1" source="JfAFxv9XHzVIEhKvCDaF-6" target="JfAFxv9XHzVIEhKvCDaF-34">
          <mxGeometry relative="1" as="geometry" />
        </mxCell>
        <mxCell id="lcrHF27Oe8sUzLJfKoiB-17" value="4" style="edgeLabel;html=1;align=center;verticalAlign=middle;resizable=0;points=[];" connectable="0" vertex="1" parent="lcrHF27Oe8sUzLJfKoiB-8">
          <mxGeometry x="-0.5097" relative="1" as="geometry">
            <mxPoint as="offset" />
          </mxGeometry>
        </mxCell>
        <mxCell id="JfAFxv9XHzVIEhKvCDaF-6" value="1.4" style="ellipse;whiteSpace=wrap;html=1;aspect=fixed;" vertex="1" parent="1">
          <mxGeometry x="386.24" y="60" width="40" height="40" as="geometry" />
        </mxCell>
        <mxCell id="lcrHF27Oe8sUzLJfKoiB-9" style="edgeStyle=orthogonalEdgeStyle;rounded=0;orthogonalLoop=1;jettySize=auto;html=1;entryX=0;entryY=0.5;entryDx=0;entryDy=0;" edge="1" parent="1" source="JfAFxv9XHzVIEhKvCDaF-7" target="JfAFxv9XHzVIEhKvCDaF-34">
          <mxGeometry relative="1" as="geometry" />
        </mxCell>
        <mxCell id="lcrHF27Oe8sUzLJfKoiB-18" value="4" style="edgeLabel;html=1;align=center;verticalAlign=middle;resizable=0;points=[];" connectable="0" vertex="1" parent="lcrHF27Oe8sUzLJfKoiB-9">
          <mxGeometry x="-0.7546" y="-1" relative="1" as="geometry">
            <mxPoint as="offset" />
          </mxGeometry>
        </mxCell>
        <mxCell id="JfAFxv9XHzVIEhKvCDaF-7" value="1.5" style="ellipse;whiteSpace=wrap;html=1;aspect=fixed;" vertex="1" parent="1">
          <mxGeometry x="384.37" y="110" width="40" height="40" as="geometry" />
        </mxCell>
        <mxCell id="JfAFxv9XHzVIEhKvCDaF-25" style="edgeStyle=orthogonalEdgeStyle;rounded=0;orthogonalLoop=1;jettySize=auto;html=1;entryX=0;entryY=0.5;entryDx=0;entryDy=0;" edge="1" parent="1" source="JfAFxv9XHzVIEhKvCDaF-18" target="JfAFxv9XHzVIEhKvCDaF-22">
          <mxGeometry relative="1" as="geometry" />
        </mxCell>
        <mxCell id="1YkeTyR81IGIItmo_7Jy-21" value="23" style="edgeLabel;html=1;align=center;verticalAlign=middle;resizable=0;points=[];" connectable="0" vertex="1" parent="JfAFxv9XHzVIEhKvCDaF-25">
          <mxGeometry x="-0.3117" relative="1" as="geometry">
            <mxPoint y="-10" as="offset" />
          </mxGeometry>
        </mxCell>
        <mxCell id="JfAFxv9XHzVIEhKvCDaF-18" value="1.6" style="ellipse;whiteSpace=wrap;html=1;aspect=fixed;" vertex="1" parent="1">
          <mxGeometry x="505.12" y="6" width="40" height="40" as="geometry" />
        </mxCell>
        <mxCell id="lcrHF27Oe8sUzLJfKoiB-22" style="edgeStyle=orthogonalEdgeStyle;rounded=0;orthogonalLoop=1;jettySize=auto;html=1;entryX=0;entryY=0.5;entryDx=0;entryDy=0;" edge="1" parent="1" source="JfAFxv9XHzVIEhKvCDaF-21" target="JfAFxv9XHzVIEhKvCDaF-29">
          <mxGeometry relative="1" as="geometry" />
        </mxCell>
        <mxCell id="lcrHF27Oe8sUzLJfKoiB-25" value="19" style="edgeLabel;html=1;align=center;verticalAlign=middle;resizable=0;points=[];" connectable="0" vertex="1" parent="lcrHF27Oe8sUzLJfKoiB-22">
          <mxGeometry x="-0.8513" y="1" relative="1" as="geometry">
            <mxPoint as="offset" />
          </mxGeometry>
        </mxCell>
        <mxCell id="JfAFxv9XHzVIEhKvCDaF-21" value="1.5.1" style="ellipse;whiteSpace=wrap;html=1;aspect=fixed;" vertex="1" parent="1">
          <mxGeometry x="592" y="190" width="40" height="40" as="geometry" />
        </mxCell>
        <mxCell id="JfAFxv9XHzVIEhKvCDaF-33" style="edgeStyle=orthogonalEdgeStyle;rounded=0;orthogonalLoop=1;jettySize=auto;html=1;" edge="1" parent="1" source="JfAFxv9XHzVIEhKvCDaF-22" target="JfAFxv9XHzVIEhKvCDaF-29">
          <mxGeometry relative="1" as="geometry" />
        </mxCell>
        <mxCell id="1YkeTyR81IGIItmo_7Jy-25" value="19" style="edgeLabel;html=1;align=center;verticalAlign=middle;resizable=0;points=[];" connectable="0" vertex="1" parent="JfAFxv9XHzVIEhKvCDaF-33">
          <mxGeometry x="-0.3781" y="2" relative="1" as="geometry">
            <mxPoint x="3" y="-9" as="offset" />
          </mxGeometry>
        </mxCell>
        <mxCell id="JfAFxv9XHzVIEhKvCDaF-22" value="1.6.1" style="ellipse;whiteSpace=wrap;html=1;aspect=fixed;" vertex="1" parent="1">
          <mxGeometry x="589.75" y="6" width="41" height="41" as="geometry" />
        </mxCell>
        <mxCell id="lcrHF27Oe8sUzLJfKoiB-21" style="edgeStyle=orthogonalEdgeStyle;rounded=0;orthogonalLoop=1;jettySize=auto;html=1;entryX=0;entryY=0.5;entryDx=0;entryDy=0;" edge="1" parent="1" source="JfAFxv9XHzVIEhKvCDaF-27" target="JfAFxv9XHzVIEhKvCDaF-29">
          <mxGeometry relative="1" as="geometry" />
        </mxCell>
        <mxCell id="lcrHF27Oe8sUzLJfKoiB-24" value="19" style="edgeLabel;html=1;align=center;verticalAlign=middle;resizable=0;points=[];" connectable="0" vertex="1" parent="lcrHF27Oe8sUzLJfKoiB-21">
          <mxGeometry x="-0.787" y="1" relative="1" as="geometry">
            <mxPoint as="offset" />
          </mxGeometry>
        </mxCell>
        <mxCell id="JfAFxv9XHzVIEhKvCDaF-27" value="1.4.1" style="ellipse;whiteSpace=wrap;html=1;aspect=fixed;" vertex="1" parent="1">
          <mxGeometry x="593.25" y="130" width="40" height="40" as="geometry" />
        </mxCell>
        <mxCell id="lcrHF27Oe8sUzLJfKoiB-15" style="edgeStyle=orthogonalEdgeStyle;rounded=0;orthogonalLoop=1;jettySize=auto;html=1;" edge="1" parent="1" source="JfAFxv9XHzVIEhKvCDaF-29" target="JfAFxv9XHzVIEhKvCDaF-51">
          <mxGeometry relative="1" as="geometry">
            <Array as="points">
              <mxPoint x="736" y="250" />
              <mxPoint x="220" y="250" />
            </Array>
          </mxGeometry>
        </mxCell>
        <mxCell id="lcrHF27Oe8sUzLJfKoiB-26" value="3" style="edgeLabel;html=1;align=center;verticalAlign=middle;resizable=0;points=[];" connectable="0" vertex="1" parent="lcrHF27Oe8sUzLJfKoiB-15">
          <mxGeometry x="-0.7581" y="1" relative="1" as="geometry">
            <mxPoint as="offset" />
          </mxGeometry>
        </mxCell>
        <mxCell id="JfAFxv9XHzVIEhKvCDaF-29" value="1.7" style="ellipse;whiteSpace=wrap;html=1;aspect=fixed;" vertex="1" parent="1">
          <mxGeometry x="715.75" y="6" width="40" height="40" as="geometry" />
        </mxCell>
        <mxCell id="JfAFxv9XHzVIEhKvCDaF-46" style="edgeStyle=orthogonalEdgeStyle;rounded=0;orthogonalLoop=1;jettySize=auto;html=1;fillColor=#f8cecc;strokeColor=#b85450;" edge="1" parent="1" source="JfAFxv9XHzVIEhKvCDaF-34" target="JfAFxv9XHzVIEhKvCDaF-45">
          <mxGeometry relative="1" as="geometry">
            <Array as="points">
              <mxPoint x="491" y="240" />
              <mxPoint x="30" y="240" />
              <mxPoint x="30" y="350" />
            </Array>
          </mxGeometry>
        </mxCell>
        <mxCell id="JfAFxv9XHzVIEhKvCDaF-47" style="edgeStyle=orthogonalEdgeStyle;rounded=0;orthogonalLoop=1;jettySize=auto;html=1;entryX=0;entryY=0.5;entryDx=0;entryDy=0;" edge="1" parent="1" source="JfAFxv9XHzVIEhKvCDaF-34" target="JfAFxv9XHzVIEhKvCDaF-43">
          <mxGeometry relative="1" as="geometry">
            <Array as="points">
              <mxPoint x="490" y="240" />
              <mxPoint x="30" y="240" />
              <mxPoint x="30" y="290" />
            </Array>
          </mxGeometry>
        </mxCell>
        <mxCell id="1YkeTyR81IGIItmo_7Jy-27" value="1" style="edgeLabel;html=1;align=center;verticalAlign=middle;resizable=0;points=[];" connectable="0" vertex="1" parent="JfAFxv9XHzVIEhKvCDaF-47">
          <mxGeometry x="-0.0549" y="-4" relative="1" as="geometry">
            <mxPoint x="-62" as="offset" />
          </mxGeometry>
        </mxCell>
        <mxCell id="lcrHF27Oe8sUzLJfKoiB-11" style="edgeStyle=orthogonalEdgeStyle;rounded=0;orthogonalLoop=1;jettySize=auto;html=1;entryX=0;entryY=0.5;entryDx=0;entryDy=0;" edge="1" parent="1" source="JfAFxv9XHzVIEhKvCDaF-34" target="JfAFxv9XHzVIEhKvCDaF-20">
          <mxGeometry relative="1" as="geometry" />
        </mxCell>
        <mxCell id="lcrHF27Oe8sUzLJfKoiB-13" style="edgeStyle=orthogonalEdgeStyle;rounded=0;orthogonalLoop=1;jettySize=auto;html=1;entryX=0;entryY=0.5;entryDx=0;entryDy=0;" edge="1" parent="1" source="JfAFxv9XHzVIEhKvCDaF-34" target="JfAFxv9XHzVIEhKvCDaF-27">
          <mxGeometry relative="1" as="geometry" />
        </mxCell>
        <mxCell id="lcrHF27Oe8sUzLJfKoiB-14" style="edgeStyle=orthogonalEdgeStyle;rounded=0;orthogonalLoop=1;jettySize=auto;html=1;entryX=0;entryY=0.5;entryDx=0;entryDy=0;" edge="1" parent="1" source="JfAFxv9XHzVIEhKvCDaF-34" target="JfAFxv9XHzVIEhKvCDaF-21">
          <mxGeometry relative="1" as="geometry" />
        </mxCell>
        <mxCell id="lcrHF27Oe8sUzLJfKoiB-20" value="1" style="edgeLabel;html=1;align=center;verticalAlign=middle;resizable=0;points=[];" connectable="0" vertex="1" parent="lcrHF27Oe8sUzLJfKoiB-14">
          <mxGeometry x="-0.8634" relative="1" as="geometry">
            <mxPoint as="offset" />
          </mxGeometry>
        </mxCell>
        <mxCell id="JfAFxv9XHzVIEhKvCDaF-34" value="1.8" style="ellipse;whiteSpace=wrap;html=1;aspect=fixed;" vertex="1" parent="1">
          <mxGeometry x="471.25" y="45" width="40" height="40" as="geometry" />
        </mxCell>
        <mxCell id="lcrHF27Oe8sUzLJfKoiB-12" style="edgeStyle=orthogonalEdgeStyle;rounded=0;orthogonalLoop=1;jettySize=auto;html=1;entryX=0;entryY=0.5;entryDx=0;entryDy=0;" edge="1" parent="1" source="JfAFxv9XHzVIEhKvCDaF-20" target="JfAFxv9XHzVIEhKvCDaF-29">
          <mxGeometry relative="1" as="geometry" />
        </mxCell>
        <mxCell id="lcrHF27Oe8sUzLJfKoiB-23" value="19" style="edgeLabel;html=1;align=center;verticalAlign=middle;resizable=0;points=[];" connectable="0" vertex="1" parent="lcrHF27Oe8sUzLJfKoiB-12">
          <mxGeometry x="-0.6907" relative="1" as="geometry">
            <mxPoint as="offset" />
          </mxGeometry>
        </mxCell>
        <mxCell id="JfAFxv9XHzVIEhKvCDaF-20" value="1.3.1" style="ellipse;whiteSpace=wrap;html=1;aspect=fixed;" vertex="1" parent="1">
          <mxGeometry x="590.75" y="67.5" width="42.5" height="42.5" as="geometry" />
        </mxCell>
        <mxCell id="JfAFxv9XHzVIEhKvCDaF-49" style="edgeStyle=orthogonalEdgeStyle;rounded=0;orthogonalLoop=1;jettySize=auto;html=1;entryX=0.5;entryY=0;entryDx=0;entryDy=0;" edge="1" parent="1" source="JfAFxv9XHzVIEhKvCDaF-43" target="JfAFxv9XHzVIEhKvCDaF-48">
          <mxGeometry relative="1" as="geometry" />
        </mxCell>
        <mxCell id="1YkeTyR81IGIItmo_7Jy-29" value="6" style="edgeLabel;html=1;align=center;verticalAlign=middle;resizable=0;points=[];" connectable="0" vertex="1" parent="JfAFxv9XHzVIEhKvCDaF-49">
          <mxGeometry x="-0.2778" y="1" relative="1" as="geometry">
            <mxPoint as="offset" />
          </mxGeometry>
        </mxCell>
        <mxCell id="JfAFxv9XHzVIEhKvCDaF-43" value="2.1" style="ellipse;whiteSpace=wrap;html=1;aspect=fixed;" vertex="1" parent="1">
          <mxGeometry x="40" y="270" width="40" height="40" as="geometry" />
        </mxCell>
        <mxCell id="JfAFxv9XHzVIEhKvCDaF-50" style="edgeStyle=orthogonalEdgeStyle;rounded=0;orthogonalLoop=1;jettySize=auto;html=1;entryX=0.5;entryY=1;entryDx=0;entryDy=0;fillColor=#f8cecc;strokeColor=#b85450;" edge="1" parent="1" source="JfAFxv9XHzVIEhKvCDaF-45" target="JfAFxv9XHzVIEhKvCDaF-48">
          <mxGeometry relative="1" as="geometry" />
        </mxCell>
        <mxCell id="1YkeTyR81IGIItmo_7Jy-30" value="6" style="edgeLabel;html=1;align=center;verticalAlign=middle;resizable=0;points=[];" connectable="0" vertex="1" parent="JfAFxv9XHzVIEhKvCDaF-50">
          <mxGeometry x="-0.4819" y="-1" relative="1" as="geometry">
            <mxPoint as="offset" />
          </mxGeometry>
        </mxCell>
        <mxCell id="JfAFxv9XHzVIEhKvCDaF-45" value="2.2" style="ellipse;whiteSpace=wrap;html=1;aspect=fixed;" vertex="1" parent="1">
          <mxGeometry x="40" y="330" width="40" height="40" as="geometry" />
        </mxCell>
        <mxCell id="JfAFxv9XHzVIEhKvCDaF-52" style="edgeStyle=orthogonalEdgeStyle;rounded=0;orthogonalLoop=1;jettySize=auto;html=1;entryX=0;entryY=0.5;entryDx=0;entryDy=0;strokeColor=#EA6B66;" edge="1" parent="1" source="JfAFxv9XHzVIEhKvCDaF-48" target="JfAFxv9XHzVIEhKvCDaF-51">
          <mxGeometry relative="1" as="geometry" />
        </mxCell>
        <mxCell id="80PsUv7kO_VL5Rtm0FUH-17" value="12" style="edgeLabel;html=1;align=center;verticalAlign=middle;resizable=0;points=[];" connectable="0" vertex="1" parent="JfAFxv9XHzVIEhKvCDaF-52">
          <mxGeometry x="0.1333" y="1" relative="1" as="geometry">
            <mxPoint x="-7" y="1" as="offset" />
          </mxGeometry>
        </mxCell>
        <mxCell id="JfAFxv9XHzVIEhKvCDaF-48" value="2.3" style="ellipse;whiteSpace=wrap;html=1;aspect=fixed;" vertex="1" parent="1">
          <mxGeometry x="110" y="300" width="40" height="40" as="geometry" />
        </mxCell>
        <mxCell id="80PsUv7kO_VL5Rtm0FUH-3" style="edgeStyle=orthogonalEdgeStyle;rounded=0;orthogonalLoop=1;jettySize=auto;html=1;entryX=0;entryY=0.5;entryDx=0;entryDy=0;strokeColor=#EA6B66;" edge="1" parent="1" source="JfAFxv9XHzVIEhKvCDaF-51" target="80PsUv7kO_VL5Rtm0FUH-1">
          <mxGeometry relative="1" as="geometry" />
        </mxCell>
        <mxCell id="80PsUv7kO_VL5Rtm0FUH-5" value="1" style="edgeLabel;html=1;align=center;verticalAlign=middle;resizable=0;points=[];" connectable="0" vertex="1" parent="80PsUv7kO_VL5Rtm0FUH-3">
          <mxGeometry x="-0.0833" y="2" relative="1" as="geometry">
            <mxPoint as="offset" />
          </mxGeometry>
        </mxCell>
        <mxCell id="JfAFxv9XHzVIEhKvCDaF-51" value="2.3.1" style="ellipse;whiteSpace=wrap;html=1;aspect=fixed;" vertex="1" parent="1">
          <mxGeometry x="200" y="300" width="40" height="40" as="geometry" />
        </mxCell>
        <mxCell id="lcrHF27Oe8sUzLJfKoiB-7" style="edgeStyle=orthogonalEdgeStyle;rounded=0;orthogonalLoop=1;jettySize=auto;html=1;entryX=0;entryY=0.5;entryDx=0;entryDy=0;fillColor=#f8cecc;strokeColor=#b85450;" edge="1" parent="1" source="JfAFxv9XHzVIEhKvCDaF-5" target="JfAFxv9XHzVIEhKvCDaF-34">
          <mxGeometry relative="1" as="geometry" />
        </mxCell>
        <mxCell id="lcrHF27Oe8sUzLJfKoiB-16" value="4" style="edgeLabel;html=1;align=center;verticalAlign=middle;resizable=0;points=[];" connectable="0" vertex="1" parent="lcrHF27Oe8sUzLJfKoiB-7">
          <mxGeometry x="-0.6483" relative="1" as="geometry">
            <mxPoint as="offset" />
          </mxGeometry>
        </mxCell>
        <mxCell id="JfAFxv9XHzVIEhKvCDaF-5" value="1.3" style="ellipse;whiteSpace=wrap;html=1;aspect=fixed;" vertex="1" parent="1">
          <mxGeometry x="384.37" y="8.13" width="41.87" height="41.87" as="geometry" />
        </mxCell>
        <mxCell id="1YkeTyR81IGIItmo_7Jy-9" style="edgeStyle=orthogonalEdgeStyle;rounded=0;orthogonalLoop=1;jettySize=auto;html=1;fillColor=#f8cecc;strokeColor=#b85450;" edge="1" parent="1" source="1YkeTyR81IGIItmo_7Jy-6">
          <mxGeometry relative="1" as="geometry">
            <mxPoint x="379.9999999999999" y="29.069999999999993" as="targetPoint" />
          </mxGeometry>
        </mxCell>
        <mxCell id="1YkeTyR81IGIItmo_7Jy-10" value="1" style="edgeLabel;html=1;align=center;verticalAlign=middle;resizable=0;points=[];" connectable="0" vertex="1" parent="1YkeTyR81IGIItmo_7Jy-9">
          <mxGeometry x="0.0426" relative="1" as="geometry">
            <mxPoint x="-1" y="-10" as="offset" />
          </mxGeometry>
        </mxCell>
        <mxCell id="1YkeTyR81IGIItmo_7Jy-13" style="edgeStyle=orthogonalEdgeStyle;rounded=0;orthogonalLoop=1;jettySize=auto;html=1;entryX=0;entryY=0.5;entryDx=0;entryDy=0;" edge="1" parent="1" source="1YkeTyR81IGIItmo_7Jy-6" target="JfAFxv9XHzVIEhKvCDaF-7">
          <mxGeometry relative="1" as="geometry">
            <Array as="points">
              <mxPoint x="320" y="130" />
            </Array>
          </mxGeometry>
        </mxCell>
        <mxCell id="1YkeTyR81IGIItmo_7Jy-15" value="1" style="edgeLabel;html=1;align=center;verticalAlign=middle;resizable=0;points=[];" connectable="0" vertex="1" parent="1YkeTyR81IGIItmo_7Jy-13">
          <mxGeometry x="0.5115" y="3" relative="1" as="geometry">
            <mxPoint x="1" y="-7" as="offset" />
          </mxGeometry>
        </mxCell>
        <mxCell id="1YkeTyR81IGIItmo_7Jy-6" value="1.2.3" style="ellipse;whiteSpace=wrap;html=1;aspect=fixed;" vertex="1" parent="1">
          <mxGeometry x="300" y="9.07" width="40" height="40" as="geometry" />
        </mxCell>
        <mxCell id="1YkeTyR81IGIItmo_7Jy-12" value="1" style="edgeStyle=orthogonalEdgeStyle;rounded=0;orthogonalLoop=1;jettySize=auto;html=1;entryX=0.02;entryY=0.623;entryDx=0;entryDy=0;entryPerimeter=0;" edge="1" parent="1" source="1YkeTyR81IGIItmo_7Jy-6" target="JfAFxv9XHzVIEhKvCDaF-6">
          <mxGeometry x="0.3553" y="5" relative="1" as="geometry">
            <Array as="points">
              <mxPoint x="320" y="80" />
              <mxPoint x="386" y="80" />
            </Array>
            <mxPoint as="offset" />
          </mxGeometry>
        </mxCell>
        <mxCell id="1YkeTyR81IGIItmo_7Jy-50" value="&lt;span style=&quot;font-size: 8px;&quot;&gt;0/0&lt;/span&gt;" style="text;html=1;align=center;verticalAlign=middle;resizable=0;points=[];autosize=1;strokeColor=none;fillColor=none;" vertex="1" parent="1">
          <mxGeometry x="10" y="40" width="30" height="30" as="geometry" />
        </mxCell>
        <mxCell id="1YkeTyR81IGIItmo_7Jy-51" value="&lt;font style=&quot;font-size: 8px;&quot;&gt;1/1&lt;/font&gt;" style="text;html=1;align=center;verticalAlign=middle;resizable=0;points=[];autosize=1;strokeColor=none;fillColor=none;" vertex="1" parent="1">
          <mxGeometry x="85" y="40" width="30" height="30" as="geometry" />
        </mxCell>
        <mxCell id="1YkeTyR81IGIItmo_7Jy-52" value="&lt;font style=&quot;font-size: 8px;&quot;&gt;4/4&lt;/font&gt;" style="text;html=1;align=center;verticalAlign=middle;resizable=0;points=[];autosize=1;strokeColor=none;fillColor=none;" vertex="1" parent="1">
          <mxGeometry x="156.25" y="40" width="30" height="30" as="geometry" />
        </mxCell>
        <mxCell id="1YkeTyR81IGIItmo_7Jy-53" value="&lt;font style=&quot;font-size: 8px;&quot;&gt;7/7&lt;/font&gt;" style="text;html=1;align=center;verticalAlign=middle;resizable=0;points=[];autosize=1;strokeColor=none;fillColor=none;" vertex="1" parent="1">
          <mxGeometry x="226.56" y="40" width="30" height="30" as="geometry" />
        </mxCell>
        <mxCell id="1YkeTyR81IGIItmo_7Jy-55" value="&lt;font style=&quot;font-size: 8px;&quot;&gt;10/10&lt;/font&gt;" style="text;html=1;align=center;verticalAlign=middle;resizable=0;points=[];autosize=1;strokeColor=none;fillColor=none;" vertex="1" parent="1">
          <mxGeometry x="300" y="-10" width="40" height="30" as="geometry" />
        </mxCell>
        <mxCell id="1YkeTyR81IGIItmo_7Jy-56" value="&lt;font style=&quot;font-size: 8px;&quot;&gt;11/11&lt;/font&gt;" style="text;html=1;align=center;verticalAlign=middle;resizable=0;points=[];autosize=1;strokeColor=none;fillColor=none;" vertex="1" parent="1">
          <mxGeometry x="384.37" y="-10" width="40" height="30" as="geometry" />
        </mxCell>
        <mxCell id="1YkeTyR81IGIItmo_7Jy-57" value="&lt;font style=&quot;font-size: 8px;&quot;&gt;11/11&lt;/font&gt;" style="text;html=1;align=center;verticalAlign=middle;resizable=0;points=[];autosize=1;strokeColor=none;fillColor=none;" vertex="1" parent="1">
          <mxGeometry x="384.37" y="40" width="40" height="30" as="geometry" />
        </mxCell>
        <mxCell id="1YkeTyR81IGIItmo_7Jy-58" value="&lt;font style=&quot;font-size: 8px;&quot;&gt;11/11&lt;/font&gt;" style="text;html=1;align=center;verticalAlign=middle;resizable=0;points=[];autosize=1;strokeColor=none;fillColor=none;" vertex="1" parent="1">
          <mxGeometry x="384.37" y="90" width="40" height="30" as="geometry" />
        </mxCell>
        <mxCell id="1YkeTyR81IGIItmo_7Jy-66" value="&lt;span style=&quot;font-size: 8px;&quot;&gt;19/16&lt;/span&gt;" style="text;html=1;align=center;verticalAlign=middle;resizable=0;points=[];autosize=1;strokeColor=none;fillColor=none;" vertex="1" parent="1">
          <mxGeometry x="40" y="250" width="40" height="30" as="geometry" />
        </mxCell>
        <mxCell id="1YkeTyR81IGIItmo_7Jy-67" value="&lt;span style=&quot;font-size: 8px;&quot;&gt;18/16&lt;/span&gt;" style="text;html=1;align=center;verticalAlign=middle;resizable=0;points=[];autosize=1;strokeColor=none;fillColor=none;" vertex="1" parent="1">
          <mxGeometry x="40" y="310" width="40" height="30" as="geometry" />
        </mxCell>
        <mxCell id="1YkeTyR81IGIItmo_7Jy-68" value="&lt;span style=&quot;font-size: 8px;&quot;&gt;22/20&lt;/span&gt;" style="text;html=1;align=center;verticalAlign=middle;resizable=0;points=[];autosize=1;strokeColor=none;fillColor=none;" vertex="1" parent="1">
          <mxGeometry x="129" y="280" width="40" height="30" as="geometry" />
        </mxCell>
        <mxCell id="z2k_7jXKvmVWs2d7WAhr-1" value="&lt;div style=&quot;font-size: 8px;&quot;&gt;0&lt;/div&gt;" style="text;html=1;align=center;verticalAlign=middle;resizable=0;points=[];autosize=1;strokeColor=none;fillColor=none;" vertex="1" parent="1">
          <mxGeometry x="10" y="60" width="30" height="20" as="geometry" />
        </mxCell>
        <mxCell id="z2k_7jXKvmVWs2d7WAhr-2" value="&lt;div style=&quot;font-size: 8px;&quot;&gt;0&lt;/div&gt;" style="text;html=1;align=center;verticalAlign=middle;resizable=0;points=[];autosize=1;strokeColor=none;fillColor=none;" vertex="1" parent="1">
          <mxGeometry x="85" y="60" width="30" height="20" as="geometry" />
        </mxCell>
        <mxCell id="z2k_7jXKvmVWs2d7WAhr-3" value="&lt;div style=&quot;font-size: 8px;&quot;&gt;0&lt;/div&gt;" style="text;html=1;align=center;verticalAlign=middle;resizable=0;points=[];autosize=1;strokeColor=none;fillColor=none;" vertex="1" parent="1">
          <mxGeometry x="156.25" y="60" width="30" height="20" as="geometry" />
        </mxCell>
        <mxCell id="z2k_7jXKvmVWs2d7WAhr-4" value="&lt;div style=&quot;font-size: 8px;&quot;&gt;0&lt;/div&gt;" style="text;html=1;align=center;verticalAlign=middle;resizable=0;points=[];autosize=1;strokeColor=none;fillColor=none;" vertex="1" parent="1">
          <mxGeometry x="226.56" y="60" width="30" height="20" as="geometry" />
        </mxCell>
        <mxCell id="z2k_7jXKvmVWs2d7WAhr-5" value="&lt;div style=&quot;font-size: 8px;&quot;&gt;2&lt;/div&gt;" style="text;html=1;align=center;verticalAlign=middle;resizable=0;points=[];autosize=1;strokeColor=none;fillColor=none;" vertex="1" parent="1">
          <mxGeometry x="320" width="30" height="20" as="geometry" />
        </mxCell>
        <mxCell id="z2k_7jXKvmVWs2d7WAhr-6" value="&lt;div style=&quot;font-size: 8px;&quot;&gt;0&lt;/div&gt;" style="text;html=1;align=center;verticalAlign=middle;resizable=0;points=[];autosize=1;strokeColor=none;fillColor=none;" vertex="1" parent="1">
          <mxGeometry x="410" width="30" height="20" as="geometry" />
        </mxCell>
        <mxCell id="z2k_7jXKvmVWs2d7WAhr-7" value="&lt;div style=&quot;font-size: 8px;&quot;&gt;0&lt;/div&gt;" style="text;html=1;align=center;verticalAlign=middle;resizable=0;points=[];autosize=1;strokeColor=none;fillColor=none;" vertex="1" parent="1">
          <mxGeometry x="410" y="50" width="30" height="20" as="geometry" />
        </mxCell>
        <mxCell id="z2k_7jXKvmVWs2d7WAhr-8" value="&lt;div style=&quot;font-size: 8px;&quot;&gt;2&lt;/div&gt;" style="text;html=1;align=center;verticalAlign=middle;resizable=0;points=[];autosize=1;strokeColor=none;fillColor=none;" vertex="1" parent="1">
          <mxGeometry x="463.5" y="90" width="30" height="20" as="geometry" />
        </mxCell>
        <mxCell id="z2k_7jXKvmVWs2d7WAhr-9" value="&lt;div style=&quot;font-size: 8px;&quot;&gt;0&lt;/div&gt;" style="text;html=1;align=center;verticalAlign=middle;resizable=0;points=[];autosize=1;strokeColor=none;fillColor=none;" vertex="1" parent="1">
          <mxGeometry x="410" y="100" width="30" height="20" as="geometry" />
        </mxCell>
        <mxCell id="z2k_7jXKvmVWs2d7WAhr-16" value="&lt;div style=&quot;font-size: 8px;&quot;&gt;2&lt;/div&gt;" style="text;html=1;align=center;verticalAlign=middle;resizable=0;points=[];autosize=1;strokeColor=none;fillColor=none;" vertex="1" parent="1">
          <mxGeometry x="61" y="322" width="30" height="20" as="geometry" />
        </mxCell>
        <mxCell id="z2k_7jXKvmVWs2d7WAhr-17" value="&lt;div style=&quot;font-size: 8px;&quot;&gt;3&lt;/div&gt;" style="text;html=1;align=center;verticalAlign=middle;resizable=0;points=[];autosize=1;strokeColor=none;fillColor=none;" vertex="1" parent="1">
          <mxGeometry x="61" y="260" width="30" height="20" as="geometry" />
        </mxCell>
        <mxCell id="z2k_7jXKvmVWs2d7WAhr-18" value="&lt;div style=&quot;font-size: 8px;&quot;&gt;2&lt;/div&gt;" style="text;html=1;align=center;verticalAlign=middle;resizable=0;points=[];autosize=1;strokeColor=none;fillColor=none;" vertex="1" parent="1">
          <mxGeometry x="136" y="296" width="30" height="20" as="geometry" />
        </mxCell>
        <mxCell id="lcrHF27Oe8sUzLJfKoiB-10" style="edgeStyle=orthogonalEdgeStyle;rounded=0;orthogonalLoop=1;jettySize=auto;html=1;entryX=-0.068;entryY=0.487;entryDx=0;entryDy=0;entryPerimeter=0;" edge="1" parent="1" source="JfAFxv9XHzVIEhKvCDaF-34" target="JfAFxv9XHzVIEhKvCDaF-18">
          <mxGeometry relative="1" as="geometry" />
        </mxCell>
        <mxCell id="lcrHF27Oe8sUzLJfKoiB-19" value="1" style="edgeLabel;html=1;align=center;verticalAlign=middle;resizable=0;points=[];" connectable="0" vertex="1" parent="lcrHF27Oe8sUzLJfKoiB-10">
          <mxGeometry x="-0.1556" y="1" relative="1" as="geometry">
            <mxPoint x="-9" y="-2" as="offset" />
          </mxGeometry>
        </mxCell>
        <mxCell id="lcrHF27Oe8sUzLJfKoiB-27" value="&lt;span style=&quot;font-size: 8px;&quot;&gt;0/15&lt;/span&gt;" style="text;html=1;align=center;verticalAlign=middle;resizable=0;points=[];autosize=1;strokeColor=none;fillColor=none;" vertex="1" parent="1">
          <mxGeometry x="457.5" y="73.75" width="40" height="30" as="geometry" />
        </mxCell>
        <mxCell id="lcrHF27Oe8sUzLJfKoiB-28" value="&lt;font style=&quot;font-size: 8px;&quot;&gt;0/16&lt;/font&gt;" style="text;html=1;align=center;verticalAlign=middle;resizable=0;points=[];autosize=1;strokeColor=none;fillColor=none;" vertex="1" parent="1">
          <mxGeometry x="490" y="-10" width="40" height="30" as="geometry" />
        </mxCell>
        <mxCell id="lcrHF27Oe8sUzLJfKoiB-29" value="&lt;font style=&quot;font-size: 8px;&quot;&gt;22/16&lt;/font&gt;" style="text;html=1;align=center;verticalAlign=middle;resizable=0;points=[];autosize=1;strokeColor=none;fillColor=none;" vertex="1" parent="1">
          <mxGeometry x="589.75" y="47" width="40" height="30" as="geometry" />
        </mxCell>
        <mxCell id="lcrHF27Oe8sUzLJfKoiB-30" value="&lt;font style=&quot;font-size: 8px;&quot;&gt;22/16&lt;/font&gt;" style="text;html=1;align=center;verticalAlign=middle;resizable=0;points=[];autosize=1;strokeColor=none;fillColor=none;" vertex="1" parent="1">
          <mxGeometry x="592" y="110" width="40" height="30" as="geometry" />
        </mxCell>
        <mxCell id="lcrHF27Oe8sUzLJfKoiB-31" value="&lt;font style=&quot;font-size: 8px;&quot;&gt;22/16&lt;/font&gt;" style="text;html=1;align=center;verticalAlign=middle;resizable=0;points=[];autosize=1;strokeColor=none;fillColor=none;" vertex="1" parent="1">
          <mxGeometry x="590.75" y="170" width="40" height="30" as="geometry" />
        </mxCell>
        <mxCell id="lcrHF27Oe8sUzLJfKoiB-32" value="&lt;font style=&quot;font-size: 8px;&quot;&gt;22/17&lt;/font&gt;" style="text;html=1;align=center;verticalAlign=middle;resizable=0;points=[];autosize=1;strokeColor=none;fillColor=none;" vertex="1" parent="1">
          <mxGeometry x="610" y="-10" width="40" height="30" as="geometry" />
        </mxCell>
        <mxCell id="lcrHF27Oe8sUzLJfKoiB-33" value="&lt;font style=&quot;font-size: 8px;&quot;&gt;23/18&lt;/font&gt;" style="text;html=1;align=center;verticalAlign=middle;resizable=0;points=[];autosize=1;strokeColor=none;fillColor=none;" vertex="1" parent="1">
          <mxGeometry x="750" y="-10" width="40" height="30" as="geometry" />
        </mxCell>
        <mxCell id="lcrHF27Oe8sUzLJfKoiB-36" value="&lt;font style=&quot;font-size: 8px;&quot;&gt;5&lt;/font&gt;" style="text;html=1;align=center;verticalAlign=middle;resizable=0;points=[];autosize=1;strokeColor=none;fillColor=none;" vertex="1" parent="1">
          <mxGeometry x="755" width="30" height="30" as="geometry" />
        </mxCell>
        <mxCell id="lcrHF27Oe8sUzLJfKoiB-37" value="&lt;font style=&quot;font-size: 8px;&quot;&gt;5&lt;/font&gt;" style="text;html=1;align=center;verticalAlign=middle;resizable=0;points=[];autosize=1;strokeColor=none;fillColor=none;" vertex="1" parent="1">
          <mxGeometry x="620" width="30" height="30" as="geometry" />
        </mxCell>
        <mxCell id="lcrHF27Oe8sUzLJfKoiB-38" value="&lt;span style=&quot;font-size: 8px;&quot;&gt;6&lt;/span&gt;" style="text;html=1;align=center;verticalAlign=middle;resizable=0;points=[];autosize=1;strokeColor=none;fillColor=none;" vertex="1" parent="1">
          <mxGeometry x="595.25" y="40" width="30" height="30" as="geometry" />
        </mxCell>
        <mxCell id="lcrHF27Oe8sUzLJfKoiB-39" value="&lt;span style=&quot;font-size: 8px;&quot;&gt;6&lt;/span&gt;" style="text;html=1;align=center;verticalAlign=middle;resizable=0;points=[];autosize=1;strokeColor=none;fillColor=none;" vertex="1" parent="1">
          <mxGeometry x="598.25" y="101" width="30" height="30" as="geometry" />
        </mxCell>
        <mxCell id="lcrHF27Oe8sUzLJfKoiB-40" value="&lt;span style=&quot;font-size: 8px;&quot;&gt;6&lt;/span&gt;" style="text;html=1;align=center;verticalAlign=middle;resizable=0;points=[];autosize=1;strokeColor=none;fillColor=none;" vertex="1" parent="1">
          <mxGeometry x="597" y="162" width="30" height="30" as="geometry" />
        </mxCell>
        <mxCell id="lcrHF27Oe8sUzLJfKoiB-41" value="&lt;span style=&quot;font-size: 8px;&quot;&gt;6&lt;/span&gt;" style="text;html=1;align=center;verticalAlign=middle;resizable=0;points=[];autosize=1;strokeColor=none;fillColor=none;" vertex="1" parent="1">
          <mxGeometry x="488.25" width="30" height="30" as="geometry" />
        </mxCell>
        <mxCell id="80PsUv7kO_VL5Rtm0FUH-4" style="edgeStyle=orthogonalEdgeStyle;rounded=0;orthogonalLoop=1;jettySize=auto;html=1;entryX=0;entryY=0.5;entryDx=0;entryDy=0;strokeColor=#EA6B66;" edge="1" parent="1" source="80PsUv7kO_VL5Rtm0FUH-1" target="80PsUv7kO_VL5Rtm0FUH-2">
          <mxGeometry relative="1" as="geometry" />
        </mxCell>
        <mxCell id="80PsUv7kO_VL5Rtm0FUH-6" value="1" style="edgeLabel;html=1;align=center;verticalAlign=middle;resizable=0;points=[];" connectable="0" vertex="1" parent="80PsUv7kO_VL5Rtm0FUH-4">
          <mxGeometry x="-0.0417" relative="1" as="geometry">
            <mxPoint as="offset" />
          </mxGeometry>
        </mxCell>
        <mxCell id="80PsUv7kO_VL5Rtm0FUH-1" value="2.4" style="ellipse;whiteSpace=wrap;html=1;aspect=fixed;" vertex="1" parent="1">
          <mxGeometry x="280" y="300" width="40" height="40" as="geometry" />
        </mxCell>
        <mxCell id="80PsUv7kO_VL5Rtm0FUH-9" style="edgeStyle=orthogonalEdgeStyle;rounded=0;orthogonalLoop=1;jettySize=auto;html=1;entryX=0;entryY=0.5;entryDx=0;entryDy=0;strokeColor=#EA6B66;" edge="1" parent="1" source="80PsUv7kO_VL5Rtm0FUH-2" target="80PsUv7kO_VL5Rtm0FUH-7">
          <mxGeometry relative="1" as="geometry" />
        </mxCell>
        <mxCell id="80PsUv7kO_VL5Rtm0FUH-10" value="1" style="edgeLabel;html=1;align=center;verticalAlign=middle;resizable=0;points=[];" connectable="0" vertex="1" parent="80PsUv7kO_VL5Rtm0FUH-9">
          <mxGeometry x="-0.25" relative="1" as="geometry">
            <mxPoint as="offset" />
          </mxGeometry>
        </mxCell>
        <mxCell id="80PsUv7kO_VL5Rtm0FUH-2" value="2.5" style="ellipse;whiteSpace=wrap;html=1;aspect=fixed;" vertex="1" parent="1">
          <mxGeometry x="360" y="300" width="40" height="40" as="geometry" />
        </mxCell>
        <mxCell id="80PsUv7kO_VL5Rtm0FUH-13" style="edgeStyle=orthogonalEdgeStyle;rounded=0;orthogonalLoop=1;jettySize=auto;html=1;entryX=0;entryY=0.5;entryDx=0;entryDy=0;strokeColor=#EA6B66;" edge="1" parent="1" source="80PsUv7kO_VL5Rtm0FUH-7" target="80PsUv7kO_VL5Rtm0FUH-11">
          <mxGeometry relative="1" as="geometry" />
        </mxCell>
        <mxCell id="80PsUv7kO_VL5Rtm0FUH-110" value="2" style="edgeLabel;html=1;align=center;verticalAlign=middle;resizable=0;points=[];" connectable="0" vertex="1" parent="80PsUv7kO_VL5Rtm0FUH-13">
          <mxGeometry x="-0.1629" relative="1" as="geometry">
            <mxPoint x="3" y="6" as="offset" />
          </mxGeometry>
        </mxCell>
        <mxCell id="80PsUv7kO_VL5Rtm0FUH-14" style="edgeStyle=orthogonalEdgeStyle;rounded=0;orthogonalLoop=1;jettySize=auto;html=1;entryX=0;entryY=0.5;entryDx=0;entryDy=0;" edge="1" parent="1" source="80PsUv7kO_VL5Rtm0FUH-7" target="80PsUv7kO_VL5Rtm0FUH-12">
          <mxGeometry relative="1" as="geometry">
            <Array as="points">
              <mxPoint x="500" y="320" />
              <mxPoint x="500" y="450" />
            </Array>
          </mxGeometry>
        </mxCell>
        <mxCell id="80PsUv7kO_VL5Rtm0FUH-7" value="3.1" style="ellipse;whiteSpace=wrap;html=1;aspect=fixed;" vertex="1" parent="1">
          <mxGeometry x="440" y="300" width="40" height="40" as="geometry" />
        </mxCell>
        <mxCell id="80PsUv7kO_VL5Rtm0FUH-16" style="edgeStyle=orthogonalEdgeStyle;rounded=0;orthogonalLoop=1;jettySize=auto;html=1;entryX=0;entryY=0.5;entryDx=0;entryDy=0;strokeColor=#EA6B66;" edge="1" parent="1" source="80PsUv7kO_VL5Rtm0FUH-11" target="80PsUv7kO_VL5Rtm0FUH-15">
          <mxGeometry relative="1" as="geometry" />
        </mxCell>
        <mxCell id="80PsUv7kO_VL5Rtm0FUH-36" style="edgeStyle=orthogonalEdgeStyle;rounded=0;orthogonalLoop=1;jettySize=auto;html=1;entryX=0;entryY=0.5;entryDx=0;entryDy=0;" edge="1" parent="1" source="80PsUv7kO_VL5Rtm0FUH-11" target="80PsUv7kO_VL5Rtm0FUH-21">
          <mxGeometry relative="1" as="geometry" />
        </mxCell>
        <mxCell id="80PsUv7kO_VL5Rtm0FUH-37" style="edgeStyle=orthogonalEdgeStyle;rounded=0;orthogonalLoop=1;jettySize=auto;html=1;entryX=0;entryY=0.5;entryDx=0;entryDy=0;" edge="1" parent="1" source="80PsUv7kO_VL5Rtm0FUH-11" target="80PsUv7kO_VL5Rtm0FUH-20">
          <mxGeometry relative="1" as="geometry" />
        </mxCell>
        <mxCell id="80PsUv7kO_VL5Rtm0FUH-113" value="2" style="edgeLabel;html=1;align=center;verticalAlign=middle;resizable=0;points=[];" connectable="0" vertex="1" parent="80PsUv7kO_VL5Rtm0FUH-37">
          <mxGeometry x="-0.7509" y="-1" relative="1" as="geometry">
            <mxPoint as="offset" />
          </mxGeometry>
        </mxCell>
        <mxCell id="80PsUv7kO_VL5Rtm0FUH-11" value="3.2.1" style="ellipse;whiteSpace=wrap;html=1;aspect=fixed;" vertex="1" parent="1">
          <mxGeometry x="518.25" y="275" width="40" height="40" as="geometry" />
        </mxCell>
        <mxCell id="80PsUv7kO_VL5Rtm0FUH-38" style="edgeStyle=orthogonalEdgeStyle;rounded=0;orthogonalLoop=1;jettySize=auto;html=1;entryX=0;entryY=0.5;entryDx=0;entryDy=0;" edge="1" parent="1" source="80PsUv7kO_VL5Rtm0FUH-12" target="80PsUv7kO_VL5Rtm0FUH-29">
          <mxGeometry relative="1" as="geometry">
            <Array as="points">
              <mxPoint x="590" y="450" />
              <mxPoint x="590" y="440" />
            </Array>
          </mxGeometry>
        </mxCell>
        <mxCell id="80PsUv7kO_VL5Rtm0FUH-39" style="edgeStyle=orthogonalEdgeStyle;rounded=0;orthogonalLoop=1;jettySize=auto;html=1;entryX=0;entryY=0.5;entryDx=0;entryDy=0;" edge="1" parent="1" source="80PsUv7kO_VL5Rtm0FUH-12" target="80PsUv7kO_VL5Rtm0FUH-27">
          <mxGeometry relative="1" as="geometry">
            <Array as="points">
              <mxPoint x="590" y="450" />
              <mxPoint x="590" y="490" />
            </Array>
          </mxGeometry>
        </mxCell>
        <mxCell id="80PsUv7kO_VL5Rtm0FUH-40" style="edgeStyle=orthogonalEdgeStyle;rounded=0;orthogonalLoop=1;jettySize=auto;html=1;entryX=0;entryY=0.5;entryDx=0;entryDy=0;" edge="1" parent="1" source="80PsUv7kO_VL5Rtm0FUH-12" target="80PsUv7kO_VL5Rtm0FUH-25">
          <mxGeometry relative="1" as="geometry">
            <Array as="points">
              <mxPoint x="590" y="450" />
              <mxPoint x="590" y="540" />
            </Array>
          </mxGeometry>
        </mxCell>
        <mxCell id="80PsUv7kO_VL5Rtm0FUH-114" value="2" style="edgeLabel;html=1;align=center;verticalAlign=middle;resizable=0;points=[];" connectable="0" vertex="1" parent="80PsUv7kO_VL5Rtm0FUH-40">
          <mxGeometry x="-0.7435" relative="1" as="geometry">
            <mxPoint as="offset" />
          </mxGeometry>
        </mxCell>
        <mxCell id="80PsUv7kO_VL5Rtm0FUH-12" value="3.3.1" style="ellipse;whiteSpace=wrap;html=1;aspect=fixed;" vertex="1" parent="1">
          <mxGeometry x="518.25" y="430" width="40" height="40" as="geometry" />
        </mxCell>
        <mxCell id="80PsUv7kO_VL5Rtm0FUH-42" style="edgeStyle=orthogonalEdgeStyle;rounded=0;orthogonalLoop=1;jettySize=auto;html=1;entryX=0.5;entryY=0;entryDx=0;entryDy=0;strokeColor=#EA6B66;" edge="1" parent="1" source="80PsUv7kO_VL5Rtm0FUH-15" target="80PsUv7kO_VL5Rtm0FUH-41">
          <mxGeometry relative="1" as="geometry" />
        </mxCell>
        <mxCell id="80PsUv7kO_VL5Rtm0FUH-121" value="5" style="edgeLabel;html=1;align=center;verticalAlign=middle;resizable=0;points=[];" connectable="0" vertex="1" parent="80PsUv7kO_VL5Rtm0FUH-42">
          <mxGeometry x="-0.4474" relative="1" as="geometry">
            <mxPoint as="offset" />
          </mxGeometry>
        </mxCell>
        <mxCell id="80PsUv7kO_VL5Rtm0FUH-15" value="3.2.2" style="ellipse;whiteSpace=wrap;html=1;aspect=fixed;" vertex="1" parent="1">
          <mxGeometry x="600" y="275" width="40" height="40" as="geometry" />
        </mxCell>
        <mxCell id="80PsUv7kO_VL5Rtm0FUH-44" style="edgeStyle=orthogonalEdgeStyle;rounded=0;orthogonalLoop=1;jettySize=auto;html=1;" edge="1" parent="1" source="80PsUv7kO_VL5Rtm0FUH-20">
          <mxGeometry relative="1" as="geometry">
            <mxPoint x="710" y="390" as="targetPoint" />
          </mxGeometry>
        </mxCell>
        <mxCell id="80PsUv7kO_VL5Rtm0FUH-123" value="5" style="edgeLabel;html=1;align=center;verticalAlign=middle;resizable=0;points=[];" connectable="0" vertex="1" parent="80PsUv7kO_VL5Rtm0FUH-44">
          <mxGeometry x="-0.339" relative="1" as="geometry">
            <mxPoint as="offset" />
          </mxGeometry>
        </mxCell>
        <mxCell id="80PsUv7kO_VL5Rtm0FUH-20" value="3.2.3" style="ellipse;whiteSpace=wrap;html=1;aspect=fixed;" vertex="1" parent="1">
          <mxGeometry x="600" y="370" width="40" height="40" as="geometry" />
        </mxCell>
        <mxCell id="80PsUv7kO_VL5Rtm0FUH-43" style="edgeStyle=orthogonalEdgeStyle;rounded=0;orthogonalLoop=1;jettySize=auto;html=1;entryX=0;entryY=0.5;entryDx=0;entryDy=0;" edge="1" parent="1" source="80PsUv7kO_VL5Rtm0FUH-21" target="80PsUv7kO_VL5Rtm0FUH-41">
          <mxGeometry relative="1" as="geometry" />
        </mxCell>
        <mxCell id="80PsUv7kO_VL5Rtm0FUH-122" value="5" style="edgeLabel;html=1;align=center;verticalAlign=middle;resizable=0;points=[];" connectable="0" vertex="1" parent="80PsUv7kO_VL5Rtm0FUH-43">
          <mxGeometry x="-0.5604" relative="1" as="geometry">
            <mxPoint as="offset" />
          </mxGeometry>
        </mxCell>
        <mxCell id="80PsUv7kO_VL5Rtm0FUH-21" value="3.2.4" style="ellipse;whiteSpace=wrap;html=1;aspect=fixed;" vertex="1" parent="1">
          <mxGeometry x="600" y="322" width="40" height="40" as="geometry" />
        </mxCell>
        <mxCell id="80PsUv7kO_VL5Rtm0FUH-48" style="edgeStyle=orthogonalEdgeStyle;rounded=0;orthogonalLoop=1;jettySize=auto;html=1;entryX=0.5;entryY=1;entryDx=0;entryDy=0;" edge="1" parent="1" source="80PsUv7kO_VL5Rtm0FUH-25" target="80PsUv7kO_VL5Rtm0FUH-41">
          <mxGeometry relative="1" as="geometry" />
        </mxCell>
        <mxCell id="80PsUv7kO_VL5Rtm0FUH-126" value="5" style="edgeLabel;html=1;align=center;verticalAlign=middle;resizable=0;points=[];" connectable="0" vertex="1" parent="80PsUv7kO_VL5Rtm0FUH-48">
          <mxGeometry x="-0.6544" relative="1" as="geometry">
            <mxPoint as="offset" />
          </mxGeometry>
        </mxCell>
        <mxCell id="80PsUv7kO_VL5Rtm0FUH-25" value="3.3.2" style="ellipse;whiteSpace=wrap;html=1;aspect=fixed;" vertex="1" parent="1">
          <mxGeometry x="610" y="520" width="40" height="40" as="geometry" />
        </mxCell>
        <mxCell id="80PsUv7kO_VL5Rtm0FUH-47" style="edgeStyle=orthogonalEdgeStyle;rounded=0;orthogonalLoop=1;jettySize=auto;html=1;entryX=0.5;entryY=1;entryDx=0;entryDy=0;" edge="1" parent="1" source="80PsUv7kO_VL5Rtm0FUH-27" target="80PsUv7kO_VL5Rtm0FUH-41">
          <mxGeometry relative="1" as="geometry" />
        </mxCell>
        <mxCell id="80PsUv7kO_VL5Rtm0FUH-125" value="5" style="edgeLabel;html=1;align=center;verticalAlign=middle;resizable=0;points=[];" connectable="0" vertex="1" parent="80PsUv7kO_VL5Rtm0FUH-47">
          <mxGeometry x="-0.5801" y="2" relative="1" as="geometry">
            <mxPoint as="offset" />
          </mxGeometry>
        </mxCell>
        <mxCell id="80PsUv7kO_VL5Rtm0FUH-27" value="3.3.3" style="ellipse;whiteSpace=wrap;html=1;aspect=fixed;" vertex="1" parent="1">
          <mxGeometry x="610" y="470" width="40" height="40" as="geometry" />
        </mxCell>
        <mxCell id="80PsUv7kO_VL5Rtm0FUH-45" style="edgeStyle=orthogonalEdgeStyle;rounded=0;orthogonalLoop=1;jettySize=auto;html=1;entryX=0.5;entryY=1;entryDx=0;entryDy=0;" edge="1" parent="1" source="80PsUv7kO_VL5Rtm0FUH-29" target="80PsUv7kO_VL5Rtm0FUH-41">
          <mxGeometry relative="1" as="geometry" />
        </mxCell>
        <mxCell id="80PsUv7kO_VL5Rtm0FUH-124" value="5" style="edgeLabel;html=1;align=center;verticalAlign=middle;resizable=0;points=[];" connectable="0" vertex="1" parent="80PsUv7kO_VL5Rtm0FUH-45">
          <mxGeometry x="-0.5005" y="2" relative="1" as="geometry">
            <mxPoint as="offset" />
          </mxGeometry>
        </mxCell>
        <mxCell id="80PsUv7kO_VL5Rtm0FUH-29" value="3.3.4" style="ellipse;whiteSpace=wrap;html=1;aspect=fixed;" vertex="1" parent="1">
          <mxGeometry x="610" y="420" width="40" height="40" as="geometry" />
        </mxCell>
        <mxCell id="80PsUv7kO_VL5Rtm0FUH-51" style="edgeStyle=orthogonalEdgeStyle;rounded=0;orthogonalLoop=1;jettySize=auto;html=1;entryX=0;entryY=0.5;entryDx=0;entryDy=0;strokeColor=#EA6B66;" edge="1" parent="1" source="80PsUv7kO_VL5Rtm0FUH-41" target="80PsUv7kO_VL5Rtm0FUH-49">
          <mxGeometry relative="1" as="geometry">
            <Array as="points">
              <mxPoint x="770" y="390" />
              <mxPoint x="770" y="570" />
              <mxPoint x="20" y="570" />
              <mxPoint x="20" y="610" />
            </Array>
          </mxGeometry>
        </mxCell>
        <mxCell id="80PsUv7kO_VL5Rtm0FUH-52" style="edgeStyle=orthogonalEdgeStyle;rounded=0;orthogonalLoop=1;jettySize=auto;html=1;entryX=0;entryY=0.5;entryDx=0;entryDy=0;strokeColor=#EA6B66;" edge="1" parent="1" source="80PsUv7kO_VL5Rtm0FUH-41" target="80PsUv7kO_VL5Rtm0FUH-50">
          <mxGeometry relative="1" as="geometry">
            <Array as="points">
              <mxPoint x="770" y="390" />
              <mxPoint x="770" y="570" />
              <mxPoint x="20" y="570" />
              <mxPoint x="20" y="670" />
            </Array>
          </mxGeometry>
        </mxCell>
        <mxCell id="80PsUv7kO_VL5Rtm0FUH-128" value="2" style="edgeLabel;html=1;align=center;verticalAlign=middle;resizable=0;points=[];" connectable="0" vertex="1" parent="80PsUv7kO_VL5Rtm0FUH-52">
          <mxGeometry x="0.0375" relative="1" as="geometry">
            <mxPoint as="offset" />
          </mxGeometry>
        </mxCell>
        <mxCell id="80PsUv7kO_VL5Rtm0FUH-41" value="3.4" style="ellipse;whiteSpace=wrap;html=1;aspect=fixed;" vertex="1" parent="1">
          <mxGeometry x="705.75" y="370" width="40" height="40" as="geometry" />
        </mxCell>
        <mxCell id="80PsUv7kO_VL5Rtm0FUH-49" value="3.5" style="ellipse;whiteSpace=wrap;html=1;aspect=fixed;" vertex="1" parent="1">
          <mxGeometry x="51" y="590" width="40" height="40" as="geometry" />
        </mxCell>
        <mxCell id="mEyeXUwNoYw_wk7Fk18N-4" style="edgeStyle=orthogonalEdgeStyle;rounded=0;orthogonalLoop=1;jettySize=auto;html=1;entryX=0.5;entryY=1;entryDx=0;entryDy=0;strokeColor=#000000;" edge="1" parent="1" source="80PsUv7kO_VL5Rtm0FUH-50" target="80PsUv7kO_VL5Rtm0FUH-85">
          <mxGeometry relative="1" as="geometry">
            <Array as="points">
              <mxPoint x="110" y="670" />
              <mxPoint x="110" y="960" />
              <mxPoint x="510" y="960" />
            </Array>
          </mxGeometry>
        </mxCell>
        <mxCell id="mEyeXUwNoYw_wk7Fk18N-6" value="11" style="edgeLabel;html=1;align=center;verticalAlign=middle;resizable=0;points=[];" connectable="0" vertex="1" parent="mEyeXUwNoYw_wk7Fk18N-4">
          <mxGeometry x="-0.876" y="1" relative="1" as="geometry">
            <mxPoint x="-1" as="offset" />
          </mxGeometry>
        </mxCell>
        <mxCell id="80PsUv7kO_VL5Rtm0FUH-50" value="3.6" style="ellipse;whiteSpace=wrap;html=1;aspect=fixed;" vertex="1" parent="1">
          <mxGeometry x="50" y="650" width="40" height="40" as="geometry" />
        </mxCell>
        <mxCell id="80PsUv7kO_VL5Rtm0FUH-62" style="edgeStyle=orthogonalEdgeStyle;rounded=0;orthogonalLoop=1;jettySize=auto;html=1;entryX=0;entryY=0.5;entryDx=0;entryDy=0;dashed=1;strokeColor=#000000;" edge="1" parent="1" source="80PsUv7kO_VL5Rtm0FUH-53" target="80PsUv7kO_VL5Rtm0FUH-61">
          <mxGeometry relative="1" as="geometry" />
        </mxCell>
        <mxCell id="80PsUv7kO_VL5Rtm0FUH-63" style="edgeStyle=orthogonalEdgeStyle;rounded=0;orthogonalLoop=1;jettySize=auto;html=1;entryX=0;entryY=0.5;entryDx=0;entryDy=0;dashed=1;" edge="1" parent="1" source="80PsUv7kO_VL5Rtm0FUH-53" target="80PsUv7kO_VL5Rtm0FUH-60">
          <mxGeometry relative="1" as="geometry" />
        </mxCell>
        <mxCell id="80PsUv7kO_VL5Rtm0FUH-64" style="edgeStyle=orthogonalEdgeStyle;rounded=0;orthogonalLoop=1;jettySize=auto;html=1;entryX=0;entryY=0.5;entryDx=0;entryDy=0;dashed=1;" edge="1" parent="1" source="80PsUv7kO_VL5Rtm0FUH-53" target="80PsUv7kO_VL5Rtm0FUH-59">
          <mxGeometry relative="1" as="geometry" />
        </mxCell>
        <mxCell id="80PsUv7kO_VL5Rtm0FUH-68" style="edgeStyle=orthogonalEdgeStyle;rounded=0;orthogonalLoop=1;jettySize=auto;html=1;entryX=0;entryY=0.5;entryDx=0;entryDy=0;dashed=1;" edge="1" parent="1" source="80PsUv7kO_VL5Rtm0FUH-53" target="80PsUv7kO_VL5Rtm0FUH-67">
          <mxGeometry relative="1" as="geometry" />
        </mxCell>
        <mxCell id="80PsUv7kO_VL5Rtm0FUH-69" style="edgeStyle=orthogonalEdgeStyle;rounded=0;orthogonalLoop=1;jettySize=auto;html=1;entryX=0;entryY=0.5;entryDx=0;entryDy=0;dashed=1;dashPattern=8 8;" edge="1" parent="1" source="80PsUv7kO_VL5Rtm0FUH-53" target="80PsUv7kO_VL5Rtm0FUH-66">
          <mxGeometry relative="1" as="geometry" />
        </mxCell>
        <mxCell id="80PsUv7kO_VL5Rtm0FUH-70" style="edgeStyle=orthogonalEdgeStyle;rounded=0;orthogonalLoop=1;jettySize=auto;html=1;entryX=0;entryY=0.5;entryDx=0;entryDy=0;dashed=1;" edge="1" parent="1" source="80PsUv7kO_VL5Rtm0FUH-53" target="80PsUv7kO_VL5Rtm0FUH-65">
          <mxGeometry relative="1" as="geometry" />
        </mxCell>
        <mxCell id="80PsUv7kO_VL5Rtm0FUH-53" value="" style="ellipse;whiteSpace=wrap;html=1;aspect=fixed;" vertex="1" parent="1">
          <mxGeometry x="146.25" y="620" width="40" height="40" as="geometry" />
        </mxCell>
        <mxCell id="80PsUv7kO_VL5Rtm0FUH-75" style="edgeStyle=orthogonalEdgeStyle;rounded=0;orthogonalLoop=1;jettySize=auto;html=1;entryX=0;entryY=0.5;entryDx=0;entryDy=0;" edge="1" parent="1" source="80PsUv7kO_VL5Rtm0FUH-59" target="80PsUv7kO_VL5Rtm0FUH-71">
          <mxGeometry relative="1" as="geometry" />
        </mxCell>
        <mxCell id="80PsUv7kO_VL5Rtm0FUH-136" value="4" style="edgeLabel;html=1;align=center;verticalAlign=middle;resizable=0;points=[];" connectable="0" vertex="1" parent="80PsUv7kO_VL5Rtm0FUH-75">
          <mxGeometry x="-0.7098" y="2" relative="1" as="geometry">
            <mxPoint as="offset" />
          </mxGeometry>
        </mxCell>
        <mxCell id="80PsUv7kO_VL5Rtm0FUH-59" value="3.7.3" style="ellipse;whiteSpace=wrap;html=1;aspect=fixed;" vertex="1" parent="1">
          <mxGeometry x="226.55999999999995" y="700" width="40" height="40" as="geometry" />
        </mxCell>
        <mxCell id="80PsUv7kO_VL5Rtm0FUH-74" style="edgeStyle=orthogonalEdgeStyle;rounded=0;orthogonalLoop=1;jettySize=auto;html=1;entryX=0;entryY=0.5;entryDx=0;entryDy=0;" edge="1" parent="1" source="80PsUv7kO_VL5Rtm0FUH-60" target="80PsUv7kO_VL5Rtm0FUH-71">
          <mxGeometry relative="1" as="geometry" />
        </mxCell>
        <mxCell id="80PsUv7kO_VL5Rtm0FUH-135" value="4" style="edgeLabel;html=1;align=center;verticalAlign=middle;resizable=0;points=[];" connectable="0" vertex="1" parent="80PsUv7kO_VL5Rtm0FUH-74">
          <mxGeometry x="-0.7745" y="3" relative="1" as="geometry">
            <mxPoint as="offset" />
          </mxGeometry>
        </mxCell>
        <mxCell id="80PsUv7kO_VL5Rtm0FUH-60" value="3.7.2" style="ellipse;whiteSpace=wrap;html=1;aspect=fixed;" vertex="1" parent="1">
          <mxGeometry x="226.55999999999995" y="650" width="40" height="40" as="geometry" />
        </mxCell>
        <mxCell id="80PsUv7kO_VL5Rtm0FUH-79" style="edgeStyle=orthogonalEdgeStyle;rounded=0;orthogonalLoop=1;jettySize=auto;html=1;entryX=0;entryY=0.5;entryDx=0;entryDy=0;" edge="1" parent="1" source="80PsUv7kO_VL5Rtm0FUH-65" target="80PsUv7kO_VL5Rtm0FUH-71">
          <mxGeometry relative="1" as="geometry" />
        </mxCell>
        <mxCell id="80PsUv7kO_VL5Rtm0FUH-139" value="4" style="edgeLabel;html=1;align=center;verticalAlign=middle;resizable=0;points=[];" connectable="0" vertex="1" parent="80PsUv7kO_VL5Rtm0FUH-79">
          <mxGeometry x="-0.8196" y="1" relative="1" as="geometry">
            <mxPoint as="offset" />
          </mxGeometry>
        </mxCell>
        <mxCell id="80PsUv7kO_VL5Rtm0FUH-61" value="3.7.1" style="ellipse;whiteSpace=wrap;html=1;aspect=fixed;" vertex="1" parent="1">
          <mxGeometry x="226.55999999999995" y="600" width="40" height="40" as="geometry" />
        </mxCell>
        <mxCell id="80PsUv7kO_VL5Rtm0FUH-78" style="edgeStyle=orthogonalEdgeStyle;rounded=0;orthogonalLoop=1;jettySize=auto;html=1;entryX=0;entryY=0.5;entryDx=0;entryDy=0;" edge="1" parent="1" source="80PsUv7kO_VL5Rtm0FUH-66" target="80PsUv7kO_VL5Rtm0FUH-71">
          <mxGeometry relative="1" as="geometry" />
        </mxCell>
        <mxCell id="80PsUv7kO_VL5Rtm0FUH-138" value="4" style="edgeLabel;html=1;align=center;verticalAlign=middle;resizable=0;points=[];" connectable="0" vertex="1" parent="80PsUv7kO_VL5Rtm0FUH-78">
          <mxGeometry x="-0.7604" relative="1" as="geometry">
            <mxPoint as="offset" />
          </mxGeometry>
        </mxCell>
        <mxCell id="80PsUv7kO_VL5Rtm0FUH-65" value="3.8.3" style="ellipse;whiteSpace=wrap;html=1;aspect=fixed;" vertex="1" parent="1">
          <mxGeometry x="226.55999999999995" y="900" width="40" height="40" as="geometry" />
        </mxCell>
        <mxCell id="80PsUv7kO_VL5Rtm0FUH-76" style="edgeStyle=orthogonalEdgeStyle;rounded=0;orthogonalLoop=1;jettySize=auto;html=1;" edge="1" parent="1" source="80PsUv7kO_VL5Rtm0FUH-67" target="80PsUv7kO_VL5Rtm0FUH-71">
          <mxGeometry relative="1" as="geometry" />
        </mxCell>
        <mxCell id="80PsUv7kO_VL5Rtm0FUH-137" value="4" style="edgeLabel;html=1;align=center;verticalAlign=middle;resizable=0;points=[];" connectable="0" vertex="1" parent="80PsUv7kO_VL5Rtm0FUH-76">
          <mxGeometry x="-0.6656" relative="1" as="geometry">
            <mxPoint as="offset" />
          </mxGeometry>
        </mxCell>
        <mxCell id="80PsUv7kO_VL5Rtm0FUH-66" value="3.8.2" style="ellipse;whiteSpace=wrap;html=1;aspect=fixed;" vertex="1" parent="1">
          <mxGeometry x="226.55999999999995" y="840" width="40" height="40" as="geometry" />
        </mxCell>
        <mxCell id="80PsUv7kO_VL5Rtm0FUH-67" value="3.8.1" style="ellipse;whiteSpace=wrap;html=1;aspect=fixed;" vertex="1" parent="1">
          <mxGeometry x="226.55999999999995" y="780" width="40" height="40" as="geometry" />
        </mxCell>
        <mxCell id="80PsUv7kO_VL5Rtm0FUH-81" style="edgeStyle=orthogonalEdgeStyle;rounded=0;orthogonalLoop=1;jettySize=auto;html=1;entryX=0;entryY=0.5;entryDx=0;entryDy=0;strokeColor=#000000;" edge="1" parent="1" source="80PsUv7kO_VL5Rtm0FUH-71" target="80PsUv7kO_VL5Rtm0FUH-80">
          <mxGeometry relative="1" as="geometry" />
        </mxCell>
        <mxCell id="80PsUv7kO_VL5Rtm0FUH-84" style="edgeStyle=orthogonalEdgeStyle;rounded=0;orthogonalLoop=1;jettySize=auto;html=1;entryX=0;entryY=0.5;entryDx=0;entryDy=0;" edge="1" parent="1" source="80PsUv7kO_VL5Rtm0FUH-71" target="80PsUv7kO_VL5Rtm0FUH-82">
          <mxGeometry relative="1" as="geometry" />
        </mxCell>
        <mxCell id="80PsUv7kO_VL5Rtm0FUH-140" value="3" style="edgeLabel;html=1;align=center;verticalAlign=middle;resizable=0;points=[];" connectable="0" vertex="1" parent="80PsUv7kO_VL5Rtm0FUH-84">
          <mxGeometry x="-0.6264" y="1" relative="1" as="geometry">
            <mxPoint x="-2" y="-4" as="offset" />
          </mxGeometry>
        </mxCell>
        <mxCell id="80PsUv7kO_VL5Rtm0FUH-143" style="edgeStyle=orthogonalEdgeStyle;rounded=0;orthogonalLoop=1;jettySize=auto;html=1;entryX=0;entryY=0.5;entryDx=0;entryDy=0;" edge="1" parent="1" source="80PsUv7kO_VL5Rtm0FUH-71" target="80PsUv7kO_VL5Rtm0FUH-142">
          <mxGeometry relative="1" as="geometry">
            <Array as="points">
              <mxPoint x="390" y="760" />
              <mxPoint x="390" y="840" />
            </Array>
          </mxGeometry>
        </mxCell>
        <mxCell id="80PsUv7kO_VL5Rtm0FUH-71" value="3.9" style="ellipse;whiteSpace=wrap;html=1;aspect=fixed;" vertex="1" parent="1">
          <mxGeometry x="330" y="740" width="40" height="40" as="geometry" />
        </mxCell>
        <mxCell id="80PsUv7kO_VL5Rtm0FUH-80" value="3.10" style="ellipse;whiteSpace=wrap;html=1;aspect=fixed;" vertex="1" parent="1">
          <mxGeometry x="405" y="710" width="40" height="40" as="geometry" />
        </mxCell>
        <mxCell id="80PsUv7kO_VL5Rtm0FUH-87" style="edgeStyle=orthogonalEdgeStyle;rounded=0;orthogonalLoop=1;jettySize=auto;html=1;" edge="1" parent="1" source="80PsUv7kO_VL5Rtm0FUH-82" target="80PsUv7kO_VL5Rtm0FUH-85">
          <mxGeometry relative="1" as="geometry" />
        </mxCell>
        <mxCell id="80PsUv7kO_VL5Rtm0FUH-146" value="2" style="edgeLabel;html=1;align=center;verticalAlign=middle;resizable=0;points=[];" connectable="0" vertex="1" parent="80PsUv7kO_VL5Rtm0FUH-87">
          <mxGeometry x="-0.7257" relative="1" as="geometry">
            <mxPoint as="offset" />
          </mxGeometry>
        </mxCell>
        <mxCell id="80PsUv7kO_VL5Rtm0FUH-82" value="3.11" style="ellipse;whiteSpace=wrap;html=1;aspect=fixed;" vertex="1" parent="1">
          <mxGeometry x="405" y="770" width="40" height="40" as="geometry" />
        </mxCell>
        <mxCell id="80PsUv7kO_VL5Rtm0FUH-92" style="edgeStyle=orthogonalEdgeStyle;rounded=0;orthogonalLoop=1;jettySize=auto;html=1;entryX=0;entryY=0.5;entryDx=0;entryDy=0;dashed=1;" edge="1" parent="1" source="80PsUv7kO_VL5Rtm0FUH-85" target="80PsUv7kO_VL5Rtm0FUH-89">
          <mxGeometry relative="1" as="geometry" />
        </mxCell>
        <mxCell id="80PsUv7kO_VL5Rtm0FUH-93" style="edgeStyle=orthogonalEdgeStyle;rounded=0;orthogonalLoop=1;jettySize=auto;html=1;dashed=1;" edge="1" parent="1" source="80PsUv7kO_VL5Rtm0FUH-85" target="80PsUv7kO_VL5Rtm0FUH-88">
          <mxGeometry relative="1" as="geometry" />
        </mxCell>
        <mxCell id="80PsUv7kO_VL5Rtm0FUH-85" value="" style="ellipse;whiteSpace=wrap;html=1;aspect=fixed;" vertex="1" parent="1">
          <mxGeometry x="490" y="740" width="40" height="40" as="geometry" />
        </mxCell>
        <mxCell id="80PsUv7kO_VL5Rtm0FUH-101" style="edgeStyle=orthogonalEdgeStyle;rounded=0;orthogonalLoop=1;jettySize=auto;html=1;entryX=0;entryY=0.5;entryDx=0;entryDy=0;" edge="1" parent="1" source="80PsUv7kO_VL5Rtm0FUH-88" target="80PsUv7kO_VL5Rtm0FUH-95">
          <mxGeometry relative="1" as="geometry" />
        </mxCell>
        <mxCell id="80PsUv7kO_VL5Rtm0FUH-150" value="7" style="edgeLabel;html=1;align=center;verticalAlign=middle;resizable=0;points=[];" connectable="0" vertex="1" parent="80PsUv7kO_VL5Rtm0FUH-101">
          <mxGeometry x="-0.7302" relative="1" as="geometry">
            <mxPoint as="offset" />
          </mxGeometry>
        </mxCell>
        <mxCell id="80PsUv7kO_VL5Rtm0FUH-88" value="3.13.3" style="ellipse;whiteSpace=wrap;html=1;aspect=fixed;" vertex="1" parent="1">
          <mxGeometry x="570" y="730" width="40" height="40" as="geometry" />
        </mxCell>
        <mxCell id="80PsUv7kO_VL5Rtm0FUH-100" style="edgeStyle=orthogonalEdgeStyle;rounded=0;orthogonalLoop=1;jettySize=auto;html=1;" edge="1" parent="1" source="80PsUv7kO_VL5Rtm0FUH-89">
          <mxGeometry relative="1" as="geometry">
            <mxPoint x="650" y="700" as="targetPoint" />
          </mxGeometry>
        </mxCell>
        <mxCell id="80PsUv7kO_VL5Rtm0FUH-149" value="7" style="edgeLabel;html=1;align=center;verticalAlign=middle;resizable=0;points=[];" connectable="0" vertex="1" parent="80PsUv7kO_VL5Rtm0FUH-100">
          <mxGeometry x="-0.4845" y="2" relative="1" as="geometry">
            <mxPoint as="offset" />
          </mxGeometry>
        </mxCell>
        <mxCell id="80PsUv7kO_VL5Rtm0FUH-89" value="3.13.2" style="ellipse;whiteSpace=wrap;html=1;aspect=fixed;" vertex="1" parent="1">
          <mxGeometry x="570" y="680" width="40" height="40" as="geometry" />
        </mxCell>
        <mxCell id="80PsUv7kO_VL5Rtm0FUH-99" style="edgeStyle=orthogonalEdgeStyle;rounded=0;orthogonalLoop=1;jettySize=auto;html=1;entryX=0;entryY=0.5;entryDx=0;entryDy=0;strokeColor=#EA6B66;" edge="1" parent="1" source="80PsUv7kO_VL5Rtm0FUH-90" target="80PsUv7kO_VL5Rtm0FUH-95">
          <mxGeometry relative="1" as="geometry" />
        </mxCell>
        <mxCell id="80PsUv7kO_VL5Rtm0FUH-148" value="7" style="edgeLabel;html=1;align=center;verticalAlign=middle;resizable=0;points=[];" connectable="0" vertex="1" parent="80PsUv7kO_VL5Rtm0FUH-99">
          <mxGeometry x="-0.6413" y="1" relative="1" as="geometry">
            <mxPoint as="offset" />
          </mxGeometry>
        </mxCell>
        <mxCell id="80PsUv7kO_VL5Rtm0FUH-90" value="3.13.1" style="ellipse;whiteSpace=wrap;html=1;aspect=fixed;" vertex="1" parent="1">
          <mxGeometry x="570" y="630" width="40" height="40" as="geometry" />
        </mxCell>
        <mxCell id="80PsUv7kO_VL5Rtm0FUH-102" style="edgeStyle=orthogonalEdgeStyle;rounded=0;orthogonalLoop=1;jettySize=auto;html=1;entryX=0;entryY=0.5;entryDx=0;entryDy=0;strokeColor=#EA6B66;" edge="1" parent="1" source="80PsUv7kO_VL5Rtm0FUH-95" target="80PsUv7kO_VL5Rtm0FUH-97">
          <mxGeometry relative="1" as="geometry" />
        </mxCell>
        <mxCell id="80PsUv7kO_VL5Rtm0FUH-103" style="edgeStyle=orthogonalEdgeStyle;rounded=0;orthogonalLoop=1;jettySize=auto;html=1;entryX=0.5;entryY=1;entryDx=0;entryDy=0;" edge="1" parent="1" source="80PsUv7kO_VL5Rtm0FUH-95" target="80PsUv7kO_VL5Rtm0FUH-96">
          <mxGeometry relative="1" as="geometry" />
        </mxCell>
        <mxCell id="80PsUv7kO_VL5Rtm0FUH-151" value="1" style="edgeLabel;html=1;align=center;verticalAlign=middle;resizable=0;points=[];" connectable="0" vertex="1" parent="80PsUv7kO_VL5Rtm0FUH-103">
          <mxGeometry x="-0.5952" y="-2" relative="1" as="geometry">
            <mxPoint as="offset" />
          </mxGeometry>
        </mxCell>
        <mxCell id="80PsUv7kO_VL5Rtm0FUH-95" value="3.14" style="ellipse;whiteSpace=wrap;html=1;aspect=fixed;" vertex="1" parent="1">
          <mxGeometry x="650" y="680" width="40" height="40" as="geometry" />
        </mxCell>
        <mxCell id="80PsUv7kO_VL5Rtm0FUH-105" style="edgeStyle=orthogonalEdgeStyle;rounded=0;orthogonalLoop=1;jettySize=auto;html=1;entryX=0;entryY=0.5;entryDx=0;entryDy=0;" edge="1" parent="1" source="80PsUv7kO_VL5Rtm0FUH-96" target="80PsUv7kO_VL5Rtm0FUH-98">
          <mxGeometry relative="1" as="geometry" />
        </mxCell>
        <mxCell id="80PsUv7kO_VL5Rtm0FUH-153" value="3" style="edgeLabel;html=1;align=center;verticalAlign=middle;resizable=0;points=[];" connectable="0" vertex="1" parent="80PsUv7kO_VL5Rtm0FUH-105">
          <mxGeometry x="-0.5497" y="-3" relative="1" as="geometry">
            <mxPoint as="offset" />
          </mxGeometry>
        </mxCell>
        <mxCell id="80PsUv7kO_VL5Rtm0FUH-96" value="3.16" style="ellipse;whiteSpace=wrap;html=1;aspect=fixed;direction=south;" vertex="1" parent="1">
          <mxGeometry x="720" y="710" width="40" height="40" as="geometry" />
        </mxCell>
        <mxCell id="80PsUv7kO_VL5Rtm0FUH-104" style="edgeStyle=orthogonalEdgeStyle;rounded=0;orthogonalLoop=1;jettySize=auto;html=1;entryX=0;entryY=0.5;entryDx=0;entryDy=0;strokeColor=#EA6B66;" edge="1" parent="1" source="80PsUv7kO_VL5Rtm0FUH-97" target="80PsUv7kO_VL5Rtm0FUH-98">
          <mxGeometry relative="1" as="geometry" />
        </mxCell>
        <mxCell id="80PsUv7kO_VL5Rtm0FUH-152" value="3" style="edgeLabel;html=1;align=center;verticalAlign=middle;resizable=0;points=[];" connectable="0" vertex="1" parent="80PsUv7kO_VL5Rtm0FUH-104">
          <mxGeometry x="-0.5873" y="4" relative="1" as="geometry">
            <mxPoint as="offset" />
          </mxGeometry>
        </mxCell>
        <mxCell id="80PsUv7kO_VL5Rtm0FUH-97" value="3.15" style="ellipse;whiteSpace=wrap;html=1;aspect=fixed;" vertex="1" parent="1">
          <mxGeometry x="720" y="640" width="40" height="40" as="geometry" />
        </mxCell>
        <mxCell id="80PsUv7kO_VL5Rtm0FUH-155" style="edgeStyle=orthogonalEdgeStyle;rounded=0;orthogonalLoop=1;jettySize=auto;html=1;entryX=0;entryY=0.5;entryDx=0;entryDy=0;strokeColor=#EA6B66;" edge="1" parent="1" source="80PsUv7kO_VL5Rtm0FUH-98" target="80PsUv7kO_VL5Rtm0FUH-154">
          <mxGeometry relative="1" as="geometry" />
        </mxCell>
        <mxCell id="80PsUv7kO_VL5Rtm0FUH-156" value="1" style="edgeLabel;html=1;align=center;verticalAlign=middle;resizable=0;points=[];" connectable="0" vertex="1" parent="80PsUv7kO_VL5Rtm0FUH-155">
          <mxGeometry x="-0.0126" relative="1" as="geometry">
            <mxPoint as="offset" />
          </mxGeometry>
        </mxCell>
        <mxCell id="80PsUv7kO_VL5Rtm0FUH-98" value="3.17" style="ellipse;whiteSpace=wrap;html=1;aspect=fixed;" vertex="1" parent="1">
          <mxGeometry x="840" y="680" width="40" height="40" as="geometry" />
        </mxCell>
        <mxCell id="80PsUv7kO_VL5Rtm0FUH-106" value="&lt;span style=&quot;font-size: 8px;&quot;&gt;32/32&lt;/span&gt;" style="text;html=1;align=center;verticalAlign=middle;resizable=0;points=[];autosize=1;strokeColor=none;fillColor=none;" vertex="1" parent="1">
          <mxGeometry x="216.56" y="275" width="40" height="30" as="geometry" />
        </mxCell>
        <mxCell id="80PsUv7kO_VL5Rtm0FUH-107" value="&lt;span style=&quot;font-size: 8px;&quot;&gt;33/33&lt;/span&gt;" style="text;html=1;align=center;verticalAlign=middle;resizable=0;points=[];autosize=1;strokeColor=none;fillColor=none;" vertex="1" parent="1">
          <mxGeometry x="300" y="275" width="40" height="30" as="geometry" />
        </mxCell>
        <mxCell id="80PsUv7kO_VL5Rtm0FUH-108" value="&lt;span style=&quot;font-size: 8px;&quot;&gt;34/34&lt;/span&gt;" style="text;html=1;align=center;verticalAlign=middle;resizable=0;points=[];autosize=1;strokeColor=none;fillColor=none;" vertex="1" parent="1">
          <mxGeometry x="374" y="275" width="40" height="30" as="geometry" />
        </mxCell>
        <mxCell id="80PsUv7kO_VL5Rtm0FUH-109" value="&lt;span style=&quot;font-size: 8px;&quot;&gt;35/35&lt;/span&gt;" style="text;html=1;align=center;verticalAlign=middle;resizable=0;points=[];autosize=1;strokeColor=none;fillColor=none;" vertex="1" parent="1">
          <mxGeometry x="457.5" y="275" width="40" height="30" as="geometry" />
        </mxCell>
        <mxCell id="80PsUv7kO_VL5Rtm0FUH-111" value="&lt;span style=&quot;font-size: 8px;&quot;&gt;37/37&lt;/span&gt;" style="text;html=1;align=center;verticalAlign=middle;resizable=0;points=[];autosize=1;strokeColor=none;fillColor=none;" vertex="1" parent="1">
          <mxGeometry x="530" y="255" width="40" height="30" as="geometry" />
        </mxCell>
        <mxCell id="80PsUv7kO_VL5Rtm0FUH-112" value="&lt;span style=&quot;font-size: 8px;&quot;&gt;37/37&lt;/span&gt;" style="text;html=1;align=center;verticalAlign=middle;resizable=0;points=[];autosize=1;strokeColor=none;fillColor=none;" vertex="1" parent="1">
          <mxGeometry x="530" y="410" width="40" height="30" as="geometry" />
        </mxCell>
        <mxCell id="80PsUv7kO_VL5Rtm0FUH-115" value="&lt;span style=&quot;font-size: 8px;&quot;&gt;39/39&lt;/span&gt;" style="text;html=1;align=center;verticalAlign=middle;resizable=0;points=[];autosize=1;strokeColor=none;fillColor=none;" vertex="1" parent="1">
          <mxGeometry x="615" y="255" width="40" height="30" as="geometry" />
        </mxCell>
        <mxCell id="80PsUv7kO_VL5Rtm0FUH-116" value="&lt;span style=&quot;font-size: 8px;&quot;&gt;39/39&lt;/span&gt;" style="text;html=1;align=center;verticalAlign=middle;resizable=0;points=[];autosize=1;strokeColor=none;fillColor=none;" vertex="1" parent="1">
          <mxGeometry x="620" y="305" width="40" height="30" as="geometry" />
        </mxCell>
        <mxCell id="80PsUv7kO_VL5Rtm0FUH-117" value="&lt;span style=&quot;font-size: 8px;&quot;&gt;39/39&lt;/span&gt;" style="text;html=1;align=center;verticalAlign=middle;resizable=0;points=[];autosize=1;strokeColor=none;fillColor=none;" vertex="1" parent="1">
          <mxGeometry x="620" y="350" width="40" height="30" as="geometry" />
        </mxCell>
        <mxCell id="80PsUv7kO_VL5Rtm0FUH-118" value="&lt;span style=&quot;font-size: 8px;&quot;&gt;39/39&lt;/span&gt;" style="text;html=1;align=center;verticalAlign=middle;resizable=0;points=[];autosize=1;strokeColor=none;fillColor=none;" vertex="1" parent="1">
          <mxGeometry x="632" y="400" width="40" height="30" as="geometry" />
        </mxCell>
        <mxCell id="80PsUv7kO_VL5Rtm0FUH-119" value="&lt;span style=&quot;font-size: 8px;&quot;&gt;39/39&lt;/span&gt;" style="text;html=1;align=center;verticalAlign=middle;resizable=0;points=[];autosize=1;strokeColor=none;fillColor=none;" vertex="1" parent="1">
          <mxGeometry x="633.25" y="450" width="40" height="30" as="geometry" />
        </mxCell>
        <mxCell id="80PsUv7kO_VL5Rtm0FUH-120" value="&lt;span style=&quot;font-size: 8px;&quot;&gt;39/39&lt;/span&gt;" style="text;html=1;align=center;verticalAlign=middle;resizable=0;points=[];autosize=1;strokeColor=none;fillColor=none;" vertex="1" parent="1">
          <mxGeometry x="633.25" y="500" width="40" height="30" as="geometry" />
        </mxCell>
        <mxCell id="80PsUv7kO_VL5Rtm0FUH-127" value="&lt;span style=&quot;font-size: 8px;&quot;&gt;44/44&lt;/span&gt;" style="text;html=1;align=center;verticalAlign=middle;resizable=0;points=[];autosize=1;strokeColor=none;fillColor=none;" vertex="1" parent="1">
          <mxGeometry x="720" y="350" width="40" height="30" as="geometry" />
        </mxCell>
        <mxCell id="80PsUv7kO_VL5Rtm0FUH-130" value="&lt;span style=&quot;font-size: 8px;&quot;&gt;46/46&lt;/span&gt;" style="text;html=1;align=center;verticalAlign=middle;resizable=0;points=[];autosize=1;strokeColor=none;fillColor=none;" vertex="1" parent="1">
          <mxGeometry x="30" y="570" width="40" height="30" as="geometry" />
        </mxCell>
        <mxCell id="80PsUv7kO_VL5Rtm0FUH-131" value="&lt;span style=&quot;font-size: 8px;&quot;&gt;46/46&lt;/span&gt;" style="text;html=1;align=center;verticalAlign=middle;resizable=0;points=[];autosize=1;strokeColor=none;fillColor=none;" vertex="1" parent="1">
          <mxGeometry x="30" y="630" width="40" height="30" as="geometry" />
        </mxCell>
        <mxCell id="80PsUv7kO_VL5Rtm0FUH-144" style="edgeStyle=orthogonalEdgeStyle;rounded=0;orthogonalLoop=1;jettySize=auto;html=1;entryX=0;entryY=0.5;entryDx=0;entryDy=0;" edge="1" parent="1" source="80PsUv7kO_VL5Rtm0FUH-142" target="80PsUv7kO_VL5Rtm0FUH-85">
          <mxGeometry relative="1" as="geometry" />
        </mxCell>
        <mxCell id="80PsUv7kO_VL5Rtm0FUH-147" value="2" style="edgeLabel;html=1;align=center;verticalAlign=middle;resizable=0;points=[];" connectable="0" vertex="1" parent="80PsUv7kO_VL5Rtm0FUH-144">
          <mxGeometry x="-0.7623" y="1" relative="1" as="geometry">
            <mxPoint as="offset" />
          </mxGeometry>
        </mxCell>
        <mxCell id="80PsUv7kO_VL5Rtm0FUH-142" value="3.12" style="ellipse;whiteSpace=wrap;html=1;aspect=fixed;" vertex="1" parent="1">
          <mxGeometry x="405" y="820" width="40" height="40" as="geometry" />
        </mxCell>
        <mxCell id="80PsUv7kO_VL5Rtm0FUH-154" value="3.18" style="ellipse;whiteSpace=wrap;html=1;aspect=fixed;" vertex="1" parent="1">
          <mxGeometry x="940" y="680" width="40" height="40" as="geometry" />
        </mxCell>
        <mxCell id="80PsUv7kO_VL5Rtm0FUH-157" value="&lt;span style=&quot;font-size: 8px;&quot;&gt;48&lt;/span&gt;&lt;span style=&quot;font-size: 8px;&quot;&gt;/48&lt;/span&gt;" style="text;html=1;align=center;verticalAlign=middle;resizable=0;points=[];autosize=1;strokeColor=none;fillColor=none;" vertex="1" parent="1">
          <mxGeometry x="160" y="595" width="40" height="30" as="geometry" />
        </mxCell>
        <mxCell id="80PsUv7kO_VL5Rtm0FUH-158" value="&lt;span style=&quot;font-size: 8px;&quot;&gt;48/48&lt;/span&gt;" style="text;html=1;align=center;verticalAlign=middle;resizable=0;points=[];autosize=1;strokeColor=none;fillColor=none;" vertex="1" parent="1">
          <mxGeometry x="250" y="580" width="40" height="30" as="geometry" />
        </mxCell>
        <mxCell id="80PsUv7kO_VL5Rtm0FUH-159" value="&lt;span style=&quot;font-size: 8px;&quot;&gt;48&lt;/span&gt;&lt;span style=&quot;font-size: 8px;&quot;&gt;/48&lt;/span&gt;" style="text;html=1;align=center;verticalAlign=middle;resizable=0;points=[];autosize=1;strokeColor=none;fillColor=none;" vertex="1" parent="1">
          <mxGeometry x="248" y="630" width="40" height="30" as="geometry" />
        </mxCell>
        <mxCell id="80PsUv7kO_VL5Rtm0FUH-160" value="&lt;span style=&quot;font-size: 8px;&quot;&gt;48&lt;/span&gt;&lt;span style=&quot;font-size: 8px;&quot;&gt;/48&lt;/span&gt;" style="text;html=1;align=center;verticalAlign=middle;resizable=0;points=[];autosize=1;strokeColor=none;fillColor=none;" vertex="1" parent="1">
          <mxGeometry x="248" y="680" width="40" height="30" as="geometry" />
        </mxCell>
        <mxCell id="80PsUv7kO_VL5Rtm0FUH-161" value="&lt;span style=&quot;font-size: 8px;&quot;&gt;48&lt;/span&gt;&lt;span style=&quot;font-size: 8px;&quot;&gt;/48&lt;/span&gt;" style="text;html=1;align=center;verticalAlign=middle;resizable=0;points=[];autosize=1;strokeColor=none;fillColor=none;" vertex="1" parent="1">
          <mxGeometry x="250" y="760" width="40" height="30" as="geometry" />
        </mxCell>
        <mxCell id="80PsUv7kO_VL5Rtm0FUH-162" value="&lt;span style=&quot;font-size: 8px;&quot;&gt;48&lt;/span&gt;&lt;span style=&quot;font-size: 8px;&quot;&gt;/48&lt;/span&gt;" style="text;html=1;align=center;verticalAlign=middle;resizable=0;points=[];autosize=1;strokeColor=none;fillColor=none;" vertex="1" parent="1">
          <mxGeometry x="250" y="820" width="40" height="30" as="geometry" />
        </mxCell>
        <mxCell id="80PsUv7kO_VL5Rtm0FUH-163" value="&lt;span style=&quot;font-size: 8px;&quot;&gt;48&lt;/span&gt;&lt;span style=&quot;font-size: 8px;&quot;&gt;/48&lt;/span&gt;" style="text;html=1;align=center;verticalAlign=middle;resizable=0;points=[];autosize=1;strokeColor=none;fillColor=none;" vertex="1" parent="1">
          <mxGeometry x="250" y="880" width="40" height="30" as="geometry" />
        </mxCell>
        <mxCell id="80PsUv7kO_VL5Rtm0FUH-164" value="&lt;span style=&quot;font-size: 8px;&quot;&gt;52/52&lt;/span&gt;" style="text;html=1;align=center;verticalAlign=middle;resizable=0;points=[];autosize=1;strokeColor=none;fillColor=none;" vertex="1" parent="1">
          <mxGeometry x="320" y="710" width="40" height="30" as="geometry" />
        </mxCell>
        <mxCell id="80PsUv7kO_VL5Rtm0FUH-166" value="&lt;span style=&quot;font-size: 8px;&quot;&gt;55/55&lt;/span&gt;" style="text;html=1;align=center;verticalAlign=middle;resizable=0;points=[];autosize=1;strokeColor=none;fillColor=none;" vertex="1" parent="1">
          <mxGeometry x="414" y="680" width="40" height="30" as="geometry" />
        </mxCell>
        <mxCell id="80PsUv7kO_VL5Rtm0FUH-167" value="&lt;span style=&quot;font-size: 8px;&quot;&gt;55/55&lt;/span&gt;" style="text;html=1;align=center;verticalAlign=middle;resizable=0;points=[];autosize=1;strokeColor=none;fillColor=none;" vertex="1" parent="1">
          <mxGeometry x="414" y="745" width="40" height="30" as="geometry" />
        </mxCell>
        <mxCell id="80PsUv7kO_VL5Rtm0FUH-168" value="&lt;span style=&quot;font-size: 8px;&quot;&gt;55/55&lt;/span&gt;" style="text;html=1;align=center;verticalAlign=middle;resizable=0;points=[];autosize=1;strokeColor=none;fillColor=none;" vertex="1" parent="1">
          <mxGeometry x="423.5" y="800" width="40" height="30" as="geometry" />
        </mxCell>
        <mxCell id="80PsUv7kO_VL5Rtm0FUH-169" value="&lt;span style=&quot;font-size: 8px;&quot;&gt;57/61&lt;/span&gt;" style="text;html=1;align=center;verticalAlign=middle;resizable=0;points=[];autosize=1;strokeColor=none;fillColor=none;" vertex="1" parent="1">
          <mxGeometry x="478.25" y="710" width="40" height="30" as="geometry" />
        </mxCell>
        <mxCell id="80PsUv7kO_VL5Rtm0FUH-170" value="&lt;span style=&quot;font-size: 8px;&quot;&gt;57/61&lt;/span&gt;" style="text;html=1;align=center;verticalAlign=middle;resizable=0;points=[];autosize=1;strokeColor=none;fillColor=none;" vertex="1" parent="1">
          <mxGeometry x="585.25" y="600" width="40" height="30" as="geometry" />
        </mxCell>
        <mxCell id="80PsUv7kO_VL5Rtm0FUH-171" value="&lt;span style=&quot;font-size: 8px;&quot;&gt;57/61&lt;/span&gt;" style="text;html=1;align=center;verticalAlign=middle;resizable=0;points=[];autosize=1;strokeColor=none;fillColor=none;" vertex="1" parent="1">
          <mxGeometry x="588.25" y="660" width="40" height="30" as="geometry" />
        </mxCell>
        <mxCell id="80PsUv7kO_VL5Rtm0FUH-172" value="&lt;span style=&quot;font-size: 8px;&quot;&gt;57/61&lt;/span&gt;" style="text;html=1;align=center;verticalAlign=middle;resizable=0;points=[];autosize=1;strokeColor=none;fillColor=none;" vertex="1" parent="1">
          <mxGeometry x="585.25" y="710" width="40" height="30" as="geometry" />
        </mxCell>
        <mxCell id="80PsUv7kO_VL5Rtm0FUH-173" value="&lt;span style=&quot;font-size: 8px;&quot;&gt;64/68&lt;/span&gt;" style="text;html=1;align=center;verticalAlign=middle;resizable=0;points=[];autosize=1;strokeColor=none;fillColor=none;" vertex="1" parent="1">
          <mxGeometry x="650" y="650" width="40" height="30" as="geometry" />
        </mxCell>
        <mxCell id="80PsUv7kO_VL5Rtm0FUH-174" value="&lt;span style=&quot;font-size: 8px;&quot;&gt;65/69&lt;/span&gt;" style="text;html=1;align=center;verticalAlign=middle;resizable=0;points=[];autosize=1;strokeColor=none;fillColor=none;" vertex="1" parent="1">
          <mxGeometry x="730" y="610" width="40" height="30" as="geometry" />
        </mxCell>
        <mxCell id="80PsUv7kO_VL5Rtm0FUH-175" value="&lt;span style=&quot;font-size: 8px;&quot;&gt;68/72&lt;/span&gt;" style="text;html=1;align=center;verticalAlign=middle;resizable=0;points=[];autosize=1;strokeColor=none;fillColor=none;" vertex="1" parent="1">
          <mxGeometry x="850" y="650" width="40" height="30" as="geometry" />
        </mxCell>
        <mxCell id="80PsUv7kO_VL5Rtm0FUH-176" value="&lt;span style=&quot;font-size: 8px;&quot;&gt;69/73&lt;/span&gt;" style="text;html=1;align=center;verticalAlign=middle;resizable=0;points=[];autosize=1;strokeColor=none;fillColor=none;" vertex="1" parent="1">
          <mxGeometry x="940" y="650" width="40" height="30" as="geometry" />
        </mxCell>
        <mxCell id="80PsUv7kO_VL5Rtm0FUH-177" value="&lt;span style=&quot;font-size: 8px;&quot;&gt;65/69&lt;/span&gt;" style="text;html=1;align=center;verticalAlign=middle;resizable=0;points=[];autosize=1;strokeColor=none;fillColor=none;" vertex="1" parent="1">
          <mxGeometry x="730" y="685" width="40" height="30" as="geometry" />
        </mxCell>
        <mxCell id="80PsUv7kO_VL5Rtm0FUH-178" value="-4" style="text;html=1;align=center;verticalAlign=middle;resizable=0;points=[];autosize=1;strokeColor=none;fillColor=none;" vertex="1" parent="1">
          <mxGeometry x="930" y="660" width="30" height="30" as="geometry" />
        </mxCell>
        <mxCell id="80PsUv7kO_VL5Rtm0FUH-179" value="&lt;font style=&quot;font-size: 8px;&quot;&gt;0&lt;/font&gt;" style="text;html=1;align=center;verticalAlign=middle;resizable=0;points=[];autosize=1;strokeColor=none;fillColor=none;" vertex="1" parent="1">
          <mxGeometry x="221.56" y="286" width="30" height="30" as="geometry" />
        </mxCell>
        <mxCell id="80PsUv7kO_VL5Rtm0FUH-181" value="&lt;font style=&quot;font-size: 8px;&quot;&gt;0&lt;/font&gt;" style="text;html=1;align=center;verticalAlign=middle;resizable=0;points=[];autosize=1;strokeColor=none;fillColor=none;" vertex="1" parent="1">
          <mxGeometry x="305" y="285" width="30" height="30" as="geometry" />
        </mxCell>
        <mxCell id="80PsUv7kO_VL5Rtm0FUH-182" value="&lt;font style=&quot;font-size: 8px;&quot;&gt;0&lt;/font&gt;" style="text;html=1;align=center;verticalAlign=middle;resizable=0;points=[];autosize=1;strokeColor=none;fillColor=none;" vertex="1" parent="1">
          <mxGeometry x="384.37" y="285" width="30" height="30" as="geometry" />
        </mxCell>
        <mxCell id="80PsUv7kO_VL5Rtm0FUH-183" value="&lt;font style=&quot;font-size: 8px;&quot;&gt;0&lt;/font&gt;" style="text;html=1;align=center;verticalAlign=middle;resizable=0;points=[];autosize=1;strokeColor=none;fillColor=none;" vertex="1" parent="1">
          <mxGeometry x="463.5" y="286" width="30" height="30" as="geometry" />
        </mxCell>
        <mxCell id="80PsUv7kO_VL5Rtm0FUH-184" value="&lt;font style=&quot;font-size: 8px;&quot;&gt;0&lt;/font&gt;" style="text;html=1;align=center;verticalAlign=middle;resizable=0;points=[];autosize=1;strokeColor=none;fillColor=none;" vertex="1" parent="1">
          <mxGeometry x="545.12" y="266" width="30" height="30" as="geometry" />
        </mxCell>
        <mxCell id="80PsUv7kO_VL5Rtm0FUH-185" value="&lt;font style=&quot;font-size: 8px;&quot;&gt;0&lt;/font&gt;" style="text;html=1;align=center;verticalAlign=middle;resizable=0;points=[];autosize=1;strokeColor=none;fillColor=none;" vertex="1" parent="1">
          <mxGeometry x="545.12" y="420" width="30" height="30" as="geometry" />
        </mxCell>
        <mxCell id="80PsUv7kO_VL5Rtm0FUH-186" value="&lt;font style=&quot;font-size: 8px;&quot;&gt;0&lt;/font&gt;" style="text;html=1;align=center;verticalAlign=middle;resizable=0;points=[];autosize=1;strokeColor=none;fillColor=none;" vertex="1" parent="1">
          <mxGeometry x="627" y="362" width="30" height="30" as="geometry" />
        </mxCell>
        <mxCell id="80PsUv7kO_VL5Rtm0FUH-187" value="&lt;font style=&quot;font-size: 8px;&quot;&gt;0&lt;/font&gt;" style="text;html=1;align=center;verticalAlign=middle;resizable=0;points=[];autosize=1;strokeColor=none;fillColor=none;" vertex="1" parent="1">
          <mxGeometry x="628.25" y="316" width="30" height="30" as="geometry" />
        </mxCell>
        <mxCell id="80PsUv7kO_VL5Rtm0FUH-188" value="&lt;font style=&quot;font-size: 8px;&quot;&gt;0&lt;/font&gt;" style="text;html=1;align=center;verticalAlign=middle;resizable=0;points=[];autosize=1;strokeColor=none;fillColor=none;" vertex="1" parent="1">
          <mxGeometry x="625.25" y="266" width="30" height="30" as="geometry" />
        </mxCell>
        <mxCell id="80PsUv7kO_VL5Rtm0FUH-189" value="&lt;font style=&quot;font-size: 8px;&quot;&gt;0&lt;/font&gt;" style="text;html=1;align=center;verticalAlign=middle;resizable=0;points=[];autosize=1;strokeColor=none;fillColor=none;" vertex="1" parent="1">
          <mxGeometry x="637" y="410" width="30" height="30" as="geometry" />
        </mxCell>
        <mxCell id="80PsUv7kO_VL5Rtm0FUH-190" value="&lt;font style=&quot;font-size: 8px;&quot;&gt;0&lt;/font&gt;" style="text;html=1;align=center;verticalAlign=middle;resizable=0;points=[];autosize=1;strokeColor=none;fillColor=none;" vertex="1" parent="1">
          <mxGeometry x="637" y="460" width="30" height="30" as="geometry" />
        </mxCell>
        <mxCell id="80PsUv7kO_VL5Rtm0FUH-191" value="&lt;font style=&quot;font-size: 8px;&quot;&gt;0&lt;/font&gt;" style="text;html=1;align=center;verticalAlign=middle;resizable=0;points=[];autosize=1;strokeColor=none;fillColor=none;" vertex="1" parent="1">
          <mxGeometry x="637" y="510" width="30" height="30" as="geometry" />
        </mxCell>
        <mxCell id="mEyeXUwNoYw_wk7Fk18N-1" style="edgeStyle=orthogonalEdgeStyle;rounded=0;orthogonalLoop=1;jettySize=auto;html=1;exitX=1;exitY=0.5;exitDx=0;exitDy=0;" edge="1" parent="1" source="80PsUv7kO_VL5Rtm0FUH-41" target="80PsUv7kO_VL5Rtm0FUH-53">
          <mxGeometry relative="1" as="geometry">
            <Array as="points">
              <mxPoint x="800" y="390" />
              <mxPoint x="800" y="590" />
              <mxPoint x="166" y="590" />
            </Array>
          </mxGeometry>
        </mxCell>
        <mxCell id="mEyeXUwNoYw_wk7Fk18N-2" value="2" style="edgeLabel;html=1;align=center;verticalAlign=middle;resizable=0;points=[];" connectable="0" vertex="1" parent="mEyeXUwNoYw_wk7Fk18N-1">
          <mxGeometry x="0.278" y="3" relative="1" as="geometry">
            <mxPoint as="offset" />
          </mxGeometry>
        </mxCell>
        <mxCell id="80PsUv7kO_VL5Rtm0FUH-192" value="&lt;font style=&quot;font-size: 8px;&quot;&gt;0&lt;/font&gt;" style="text;html=1;align=center;verticalAlign=middle;resizable=0;points=[];autosize=1;strokeColor=none;fillColor=none;" vertex="1" parent="1">
          <mxGeometry x="730" y="362" width="30" height="30" as="geometry" />
        </mxCell>
        <mxCell id="80PsUv7kO_VL5Rtm0FUH-193" value="&lt;font style=&quot;font-size: 8px;&quot;&gt;0&lt;/font&gt;" style="text;html=1;align=center;verticalAlign=middle;resizable=0;points=[];autosize=1;strokeColor=none;fillColor=none;" vertex="1" parent="1">
          <mxGeometry x="35" y="580" width="30" height="30" as="geometry" />
        </mxCell>
        <mxCell id="80PsUv7kO_VL5Rtm0FUH-194" value="&lt;font style=&quot;font-size: 8px;&quot;&gt;0&lt;/font&gt;" style="text;html=1;align=center;verticalAlign=middle;resizable=0;points=[];autosize=1;strokeColor=none;fillColor=none;" vertex="1" parent="1">
          <mxGeometry x="35" y="640" width="30" height="30" as="geometry" />
        </mxCell>
        <mxCell id="80PsUv7kO_VL5Rtm0FUH-195" value="&lt;font style=&quot;font-size: 8px;&quot;&gt;0&lt;/font&gt;" style="text;html=1;align=center;verticalAlign=middle;resizable=0;points=[];autosize=1;strokeColor=none;fillColor=none;" vertex="1" parent="1">
          <mxGeometry x="169" y="605" width="30" height="30" as="geometry" />
        </mxCell>
        <mxCell id="80PsUv7kO_VL5Rtm0FUH-196" value="&lt;font style=&quot;font-size: 8px;&quot;&gt;0&lt;/font&gt;" style="text;html=1;align=center;verticalAlign=middle;resizable=0;points=[];autosize=1;strokeColor=none;fillColor=none;" vertex="1" parent="1">
          <mxGeometry x="253" y="591" width="30" height="30" as="geometry" />
        </mxCell>
        <mxCell id="80PsUv7kO_VL5Rtm0FUH-197" value="&lt;font style=&quot;font-size: 8px;&quot;&gt;0&lt;/font&gt;" style="text;html=1;align=center;verticalAlign=middle;resizable=0;points=[];autosize=1;strokeColor=none;fillColor=none;" vertex="1" parent="1">
          <mxGeometry x="253" y="640" width="30" height="30" as="geometry" />
        </mxCell>
        <mxCell id="80PsUv7kO_VL5Rtm0FUH-198" value="&lt;font style=&quot;font-size: 8px;&quot;&gt;0&lt;/font&gt;" style="text;html=1;align=center;verticalAlign=middle;resizable=0;points=[];autosize=1;strokeColor=none;fillColor=none;" vertex="1" parent="1">
          <mxGeometry x="251.56" y="690" width="30" height="30" as="geometry" />
        </mxCell>
        <mxCell id="80PsUv7kO_VL5Rtm0FUH-199" value="&lt;font style=&quot;font-size: 8px;&quot;&gt;0&lt;/font&gt;" style="text;html=1;align=center;verticalAlign=middle;resizable=0;points=[];autosize=1;strokeColor=none;fillColor=none;" vertex="1" parent="1">
          <mxGeometry x="251.56" y="770" width="30" height="30" as="geometry" />
        </mxCell>
        <mxCell id="80PsUv7kO_VL5Rtm0FUH-200" value="&lt;font style=&quot;font-size: 8px;&quot;&gt;0&lt;/font&gt;" style="text;html=1;align=center;verticalAlign=middle;resizable=0;points=[];autosize=1;strokeColor=none;fillColor=none;" vertex="1" parent="1">
          <mxGeometry x="255" y="830" width="30" height="30" as="geometry" />
        </mxCell>
        <mxCell id="80PsUv7kO_VL5Rtm0FUH-201" value="&lt;font style=&quot;font-size: 8px;&quot;&gt;0&lt;/font&gt;" style="text;html=1;align=center;verticalAlign=middle;resizable=0;points=[];autosize=1;strokeColor=none;fillColor=none;" vertex="1" parent="1">
          <mxGeometry x="255" y="890" width="30" height="30" as="geometry" />
        </mxCell>
        <mxCell id="80PsUv7kO_VL5Rtm0FUH-202" value="&lt;font style=&quot;font-size: 8px;&quot;&gt;0&lt;/font&gt;" style="text;html=1;align=center;verticalAlign=middle;resizable=0;points=[];autosize=1;strokeColor=none;fillColor=none;" vertex="1" parent="1">
          <mxGeometry x="320" y="720" width="30" height="30" as="geometry" />
        </mxCell>
        <mxCell id="80PsUv7kO_VL5Rtm0FUH-203" value="&lt;font style=&quot;font-size: 8px;&quot;&gt;0&lt;/font&gt;" style="text;html=1;align=center;verticalAlign=middle;resizable=0;points=[];autosize=1;strokeColor=none;fillColor=none;" vertex="1" parent="1">
          <mxGeometry x="424.37" y="690" width="30" height="30" as="geometry" />
        </mxCell>
        <mxCell id="80PsUv7kO_VL5Rtm0FUH-204" value="&lt;font style=&quot;font-size: 8px;&quot;&gt;0&lt;/font&gt;" style="text;html=1;align=center;verticalAlign=middle;resizable=0;points=[];autosize=1;strokeColor=none;fillColor=none;" vertex="1" parent="1">
          <mxGeometry x="424" y="755" width="30" height="30" as="geometry" />
        </mxCell>
        <mxCell id="80PsUv7kO_VL5Rtm0FUH-205" value="&lt;font style=&quot;font-size: 8px;&quot;&gt;0&lt;/font&gt;" style="text;html=1;align=center;verticalAlign=middle;resizable=0;points=[];autosize=1;strokeColor=none;fillColor=none;" vertex="1" parent="1">
          <mxGeometry x="428.5" y="810" width="30" height="30" as="geometry" />
        </mxCell>
        <mxCell id="80PsUv7kO_VL5Rtm0FUH-206" value="-4" style="text;html=1;align=center;verticalAlign=middle;resizable=0;points=[];autosize=1;strokeColor=none;fillColor=none;" vertex="1" parent="1">
          <mxGeometry x="480" y="720" width="30" height="30" as="geometry" />
        </mxCell>
        <mxCell id="80PsUv7kO_VL5Rtm0FUH-207" value="-4" style="text;html=1;align=center;verticalAlign=middle;resizable=0;points=[];autosize=1;strokeColor=none;fillColor=none;" vertex="1" parent="1">
          <mxGeometry x="592" y="610" width="30" height="30" as="geometry" />
        </mxCell>
        <mxCell id="80PsUv7kO_VL5Rtm0FUH-208" value="-4" style="text;html=1;align=center;verticalAlign=middle;resizable=0;points=[];autosize=1;strokeColor=none;fillColor=none;" vertex="1" parent="1">
          <mxGeometry x="594.75" y="670" width="30" height="30" as="geometry" />
        </mxCell>
        <mxCell id="80PsUv7kO_VL5Rtm0FUH-209" value="-4" style="text;html=1;align=center;verticalAlign=middle;resizable=0;points=[];autosize=1;strokeColor=none;fillColor=none;" vertex="1" parent="1">
          <mxGeometry x="593.25" y="720" width="30" height="30" as="geometry" />
        </mxCell>
        <mxCell id="80PsUv7kO_VL5Rtm0FUH-210" value="-4" style="text;html=1;align=center;verticalAlign=middle;resizable=0;points=[];autosize=1;strokeColor=none;fillColor=none;" vertex="1" parent="1">
          <mxGeometry x="660" y="660" width="30" height="30" as="geometry" />
        </mxCell>
        <mxCell id="80PsUv7kO_VL5Rtm0FUH-72" style="edgeStyle=orthogonalEdgeStyle;rounded=0;orthogonalLoop=1;jettySize=auto;html=1;entryX=0;entryY=0.5;entryDx=0;entryDy=0;strokeColor=#000000;" edge="1" parent="1" source="80PsUv7kO_VL5Rtm0FUH-61" target="80PsUv7kO_VL5Rtm0FUH-71">
          <mxGeometry relative="1" as="geometry" />
        </mxCell>
        <mxCell id="80PsUv7kO_VL5Rtm0FUH-134" value="4" style="edgeLabel;html=1;align=center;verticalAlign=middle;resizable=0;points=[];" connectable="0" vertex="1" parent="80PsUv7kO_VL5Rtm0FUH-72">
          <mxGeometry x="-0.8468" relative="1" as="geometry">
            <mxPoint as="offset" />
          </mxGeometry>
        </mxCell>
        <mxCell id="80PsUv7kO_VL5Rtm0FUH-86" style="edgeStyle=orthogonalEdgeStyle;rounded=0;orthogonalLoop=1;jettySize=auto;html=1;entryX=0;entryY=0.5;entryDx=0;entryDy=0;strokeColor=#000000;" edge="1" parent="1" source="80PsUv7kO_VL5Rtm0FUH-80" target="80PsUv7kO_VL5Rtm0FUH-85">
          <mxGeometry relative="1" as="geometry" />
        </mxCell>
        <mxCell id="80PsUv7kO_VL5Rtm0FUH-145" value="2" style="edgeLabel;html=1;align=center;verticalAlign=middle;resizable=0;points=[];" connectable="0" vertex="1" parent="80PsUv7kO_VL5Rtm0FUH-86">
          <mxGeometry x="-0.6343" relative="1" as="geometry">
            <mxPoint as="offset" />
          </mxGeometry>
        </mxCell>
        <mxCell id="80PsUv7kO_VL5Rtm0FUH-91" style="edgeStyle=orthogonalEdgeStyle;rounded=0;orthogonalLoop=1;jettySize=auto;html=1;entryX=0;entryY=0.5;entryDx=0;entryDy=0;dashed=1;strokeColor=#EA6B66;" edge="1" parent="1" source="80PsUv7kO_VL5Rtm0FUH-85" target="80PsUv7kO_VL5Rtm0FUH-90">
          <mxGeometry relative="1" as="geometry" />
        </mxCell>
        <mxCell id="gYMJ92DLRMzNDUjFOuNZ-1" value="-4" style="text;html=1;align=center;verticalAlign=middle;resizable=0;points=[];autosize=1;strokeColor=none;fillColor=none;" vertex="1" parent="1">
          <mxGeometry x="860" y="660" width="30" height="30" as="geometry" />
        </mxCell>
        <mxCell id="gYMJ92DLRMzNDUjFOuNZ-2" value="-4" style="text;html=1;align=center;verticalAlign=middle;resizable=0;points=[];autosize=1;strokeColor=none;fillColor=none;" vertex="1" parent="1">
          <mxGeometry x="740" y="625" width="30" height="30" as="geometry" />
        </mxCell>
        <mxCell id="gYMJ92DLRMzNDUjFOuNZ-3" value="-4" style="text;html=1;align=center;verticalAlign=middle;resizable=0;points=[];autosize=1;strokeColor=none;fillColor=none;" vertex="1" parent="1">
          <mxGeometry x="741" y="698" width="30" height="30" as="geometry" />
        </mxCell>
        <mxCell id="mEyeXUwNoYw_wk7Fk18N-3" style="edgeStyle=orthogonalEdgeStyle;rounded=0;orthogonalLoop=1;jettySize=auto;html=1;strokeColor=#EA6B66;" edge="1" parent="1" source="80PsUv7kO_VL5Rtm0FUH-49" target="80PsUv7kO_VL5Rtm0FUH-85">
          <mxGeometry relative="1" as="geometry">
            <Array as="points">
              <mxPoint x="120" y="610" />
              <mxPoint x="120" y="950" />
              <mxPoint x="510" y="950" />
            </Array>
          </mxGeometry>
        </mxCell>
        <mxCell id="mEyeXUwNoYw_wk7Fk18N-5" value="15" style="edgeLabel;html=1;align=center;verticalAlign=middle;resizable=0;points=[];" connectable="0" vertex="1" parent="mEyeXUwNoYw_wk7Fk18N-3">
          <mxGeometry x="-0.9052" y="3" relative="1" as="geometry">
            <mxPoint as="offset" />
          </mxGeometry>
        </mxCell>
      </root>
    </mxGraphModel>
  </diagram>
</mxfile>
